<svg width="32" height="29" viewBox="0 0 32 29" fill="none" xmlns="http://www.w3.org/2000/svg">
<path d="M23.7601 28.9504C19.9551 28.9504 14.9953 26.1521 9.01562 20.6325C3.01139 15.0895 -0.0213007 10.4944 0.00106662 6.97393C-0.014511 6.23131 0.140696 5.49408 0.456439 4.81093C0.772182 4.12778 1.24128 3.51425 1.83275 3.01087C1.85811 2.98126 1.94681 2.90073 1.97588 2.87389C4.16765 0.848564 5.72425 0.030067 7.11162 0.0486487C8.81658 0.0686121 10.031 1.24921 11.5675 2.74304C11.9469 3.11202 12.3592 3.51267 12.8169 3.93536C13.5927 4.54526 14.1221 5.37958 14.3192 6.30261C14.5163 7.22564 14.3694 8.18309 13.9024 9.01925C13.347 10.4897 12.8669 11.7598 15.7452 14.4177C18.6243 17.0756 20.0005 16.6316 21.5892 16.1159C22.4942 15.6841 23.5308 15.5476 24.5305 15.7287C25.5302 15.9098 26.4341 16.3979 27.0954 17.1134C27.5487 17.5327 27.9773 17.9092 28.3732 18.2568C29.9962 19.6832 31.2784 20.8094 31.2993 22.3879C31.3172 23.733 30.4323 25.1057 28.245 27.1248L28.0966 27.2576C27.5515 27.8039 26.8871 28.2373 26.1473 28.5291C25.4075 28.8209 24.6091 28.9645 23.8048 28.9504L23.7601 28.9504ZM3.60183 4.36354C3.60183 4.36354 3.5295 4.4365 3.4326 4.52394C3.05993 4.83308 2.76474 5.21354 2.56762 5.63881C2.3705 6.06409 2.27618 6.52394 2.29124 6.98632C2.27857 9.00333 3.71513 12.7489 10.6349 19.1373C17.5203 25.4925 21.5691 26.8356 23.7601 26.8356H23.7906C24.2914 26.8494 24.7894 26.7621 25.25 26.58C25.7105 26.3979 26.1225 26.1252 26.4573 25.7811C26.5395 25.7006 26.6266 25.6246 26.7182 25.5532C28.239 24.1405 29.0188 23.0888 29.0091 22.4141C29.0002 21.7271 28.075 20.914 26.795 19.7892C26.3865 19.4306 25.9436 19.0409 25.4762 18.6093C24.2633 17.4913 23.6631 17.6869 22.3466 18.1116C20.5201 18.7024 18.0212 19.5077 14.126 15.9129C10.23 12.316 11.103 10.0078 11.7404 8.32261C12.2004 7.10553 12.4107 6.54999 11.1977 5.43065C10.725 4.9942 10.2993 4.58051 9.90722 4.19986C8.69648 3.02264 7.82132 2.1725 7.08177 2.16357H7.0691C6.33852 2.16357 5.20238 2.88501 3.59508 4.36919L3.60183 4.36354Z" fill="#00DF82"/>
</svg>
