<svg width="20" height="21" viewBox="0 0 20 21" fill="none" xmlns="http://www.w3.org/2000/svg">
<path fillRule="evenodd" clipRule="evenodd" d="M1.87038 3.94798C1.35536 4.65562 1.39136 5.56216 1.94438 6.77653C2.11538 7.15334 1.94938 7.59711 1.57237 7.76903C1.19436 7.93994 0.751348 7.77502 0.579343 7.39722C-0.207677 5.6711 -0.192676 4.22984 0.623344 3.11741C0.927352 2.60867 2.8384 0.396805 4.47944 0.50375C4.99546 0.546728 5.46747 0.786605 5.91048 1.21838C6.38249 1.67915 8.36454 4.08991 8.52355 4.85252C8.6944 5.67238 8.32618 6.31265 8.05724 6.78031L8.05653 6.78153C7.79153 7.2423 7.69952 7.4392 7.79053 7.68807C8.45954 9.32423 9.49357 10.6615 10.8546 11.633C11.1916 11.8749 11.2686 12.3427 11.0276 12.6795C10.8816 12.8834 10.6516 12.9933 10.4176 12.9933C10.2656 12.9933 10.1136 12.9474 9.98158 12.8534C8.38754 11.713 7.17951 10.1568 6.39049 8.22679C6.04348 7.27228 6.45549 6.55665 6.7565 6.03392C6.98251 5.64212 7.10751 5.40824 7.05451 5.15836C6.9145 4.79755 5.45247 2.86754 4.86245 2.29283C4.68045 2.11392 4.50944 2.00898 4.38244 1.99898C3.66642 1.98199 2.20238 3.39727 1.87038 3.94798ZM15.6476 11.9734C16.4136 12.1323 18.8227 14.1133 19.2837 14.584C19.7177 15.0278 19.9577 15.5006 19.9987 15.9873C20.0637 17.8294 17.5967 19.7544 17.3137 19.9163C16.7757 20.3041 16.1446 20.5 15.4346 20.5C14.7286 20.5 13.9446 20.3061 13.0956 19.9103C9.83048 18.555 4.89235 14.1602 2.11428 10.1273C1.87928 9.78649 1.96528 9.31973 2.30629 9.08485C2.6483 8.85297 3.11531 8.93693 3.34931 9.27775C5.94438 13.0448 10.6845 17.2856 13.7006 18.539C14.9206 19.1057 15.8286 19.1407 16.5047 18.6559C17.0317 18.3371 18.5287 16.8499 18.5017 16.0763C18.4927 15.9853 18.3887 15.8144 18.2117 15.6335C17.6357 15.0438 15.7026 13.5815 15.2986 13.4296C14.9796 13.3617 14.6476 13.5556 14.1416 13.8744L13.8856 14.0333C13.5306 14.2462 13.0696 14.1333 12.8556 13.7774C12.6426 13.4236 12.7566 12.9629 13.1116 12.749L13.3426 12.606C13.9026 12.2532 14.6756 11.7715 15.6476 11.9734Z" fill="#042222"/>
</svg>
