<svg width="32" height="27" viewBox="0 0 32 27" fill="none" xmlns="http://www.w3.org/2000/svg">
<path d="M15.7521 15.8113C14.7487 15.8108 13.7751 15.4959 12.9906 14.9182L4.7177 8.45251C4.60735 8.36687 4.5164 8.26196 4.45006 8.1438C4.38371 8.02563 4.34328 7.89653 4.33108 7.7639C4.31888 7.63127 4.33515 7.49772 4.37896 7.37091C4.42277 7.2441 4.49325 7.12653 4.58637 7.02493C4.67949 6.92333 4.79341 6.83971 4.9216 6.77886C5.04979 6.71801 5.18973 6.68112 5.33338 6.67033C5.47704 6.65953 5.6216 6.67503 5.75875 6.71593C5.89591 6.75684 6.02298 6.82235 6.13266 6.9087L14.3785 13.3533C14.778 13.6401 15.2706 13.794 15.7766 13.7903C16.2826 13.7866 16.7724 13.6255 17.167 13.3329L24.8444 7.35854C24.9544 7.2725 25.0817 7.20735 25.219 7.16681C25.3563 7.12627 25.5009 7.11115 25.6445 7.12231C25.7882 7.13347 25.928 7.17069 26.056 7.23184C26.1841 7.29299 26.2978 7.37687 26.3906 7.47867C26.4835 7.58047 26.5537 7.69819 26.5973 7.82509C26.6408 7.95199 26.6568 8.08557 26.6443 8.21819C26.6319 8.35081 26.5912 8.47985 26.5247 8.59793C26.4581 8.71601 26.367 8.8208 26.2565 8.9063L18.5541 14.8991C17.759 15.4875 16.771 15.8092 15.7521 15.8113Z" fill="#00DF82"/>
<path d="M22.9105 26.6497H8.52206C7.44235 26.6638 6.37058 26.4775 5.37029 26.1019C4.37 25.7264 3.46156 25.1691 2.69885 24.4633C1.82091 23.625 1.13174 22.6343 0.671214 21.5484C0.210691 20.4625 -0.0120365 19.3031 0.0159224 18.1372V8.87328C-0.0550646 7.79093 0.11181 6.7065 0.506506 5.68525C0.901202 4.664 1.51556 3.72704 2.31261 2.93074C3.10967 2.13445 4.07294 1.49528 5.14446 1.0517C6.21599 0.608124 7.37363 0.369303 8.54771 0.349609H22.8877C24.0617 0.36939 25.2192 0.608276 26.2907 1.05189C27.3621 1.49551 28.3253 2.13469 29.1223 2.93097C29.9193 3.72726 30.5336 4.66419 30.9282 5.6854C31.3229 6.70661 31.4897 7.79098 31.4187 8.87328V18.1372C31.4468 19.3031 31.2241 20.4626 30.7635 21.5484C30.303 22.6343 29.6138 23.6251 28.7358 24.4633C27.9728 25.1693 27.064 25.7266 26.0633 26.1022C25.0627 26.4778 23.9905 26.664 22.9105 26.6497ZM8.54771 2.37266C4.87341 2.37266 2.20682 5.10633 2.20682 8.87328V18.1372C2.17994 19.0368 2.34629 19.9325 2.69625 20.7724C3.04621 21.6123 3.57286 22.38 4.2458 23.031C4.81344 23.545 5.48539 23.9506 6.22311 24.2244C6.96083 24.4982 7.74983 24.6349 8.54486 24.6266H22.8877C22.8983 24.6318 22.9026 24.6272 22.9098 24.6266C23.7024 24.6387 24.4896 24.5037 25.2246 24.2296C25.9597 23.9555 26.6276 23.5479 27.1889 23.031C27.8619 22.38 28.3886 21.6124 28.7386 20.7725C29.0886 19.9325 29.2548 19.0368 29.2278 18.1372V8.87328C29.2278 5.10633 26.5613 2.37266 22.8877 2.37266H8.54771Z" fill="#00DF82"/>
</svg>
