<svg width="78" height="78" viewBox="0 0 78 78" fill="none" xmlns="http://www.w3.org/2000/svg">
<rect width="78" height="78" fill="#F1F7F7"/>
<mask id="path-1-outside-1_192_1463" maskUnits="userSpaceOnUse" x="16" y="16" width="46" height="46" fill="black">
<rect fill="white" x="16" y="16" width="46" height="46"/>
<path d="M39 17C26.8498 17 17 26.8498 17 39C17 51.1502 26.8498 61 39 61C51.1502 61 61 51.1502 61 39C61 26.8498 51.1502 17 39 17ZM36.1256 21.4103L36.2466 21.2694C36.5532 20.9153 36.9004 20.5145 36.9526 19.8256C36.998 19.2529 36.7959 18.8487 36.5772 18.5214C37.3727 18.4279 38.1798 18.375 39 18.375C40.0072 18.375 40.9958 18.4506 41.9645 18.5902C42.1446 18.815 42.3811 19.0494 42.7648 19.2069C43.1718 19.3822 43.6523 19.5211 44.2573 19.3781C44.4361 19.3354 44.5749 19.2598 44.6946 19.1773C45.1194 19.299 45.5395 19.431 45.9534 19.5788C46.0984 19.9975 46.3769 20.4966 47.0561 20.5826C47.4384 20.6369 47.7581 20.5771 48.0379 20.4567C53.8644 23.3023 58.1455 28.8119 59.306 35.3989C59.1932 35.6367 59.1768 35.8705 59.1733 36.0183C59.1719 36.0596 59.1754 36.1015 59.1788 36.1125C59.1541 36.151 59.1224 36.1709 58.9691 36.2445C58.7938 36.3291 58.5546 36.4446 58.3339 36.6769C58.0829 36.9361 57.9674 37.1926 57.8746 37.3988C57.8024 37.5597 57.7612 37.647 57.6862 37.7219C57.6381 37.7687 57.5446 37.7969 57.3975 37.8395C57.1101 37.922 56.6763 38.0464 56.3848 38.5187C56.1077 38.9649 56.1311 39.3774 56.1476 39.6786C56.1497 39.7129 56.1524 39.748 56.1538 39.7837C56.1009 39.8099 56.0363 39.8367 55.9689 39.8587C56.0088 39.6414 56.0143 39.341 55.8197 39.0323C55.5571 38.6315 55.2099 38.571 55.027 38.571C54.6777 38.571 54.4144 38.7717 54.2453 38.9361C54.2487 38.6033 54.2412 38.2967 54.1869 38.0671C54.136 37.8361 54.1683 37.7075 54.2769 37.3349L54.3148 37.2043C54.3636 37.0269 54.4605 36.9004 54.5939 36.7244C54.7774 36.4838 55.0057 36.1847 55.1143 35.7227C55.236 35.2194 55.2002 34.8482 55.1652 34.4886C55.1521 34.3614 55.1391 34.2274 55.1329 34.0727L55.1198 33.709C55.1061 33.2814 55.0951 32.9122 54.9899 32.3732L54.9424 32.1332C54.8366 31.5922 54.7444 31.1254 54.3581 30.5362C54.0274 30.0419 53.7661 29.6947 53.1866 29.3867C53.0497 29.3118 52.9074 29.2513 52.7624 29.2059C52.5279 29.1275 52.3134 29.1007 52.1058 29.0739L51.8913 29.045C51.5249 28.9914 51.1949 29.0553 50.9522 29.1048C50.7556 29.1447 50.6304 29.177 50.5321 29.1227C50.4338 29.0691 50.3871 29.0127 50.2654 28.8587C50.2008 28.7769 50.1327 28.6909 50.0426 28.5913C49.9519 28.4936 49.89 28.4029 49.8302 28.3169C49.7119 28.1485 49.5655 27.9381 49.3077 27.7298C49.0327 27.5064 48.823 27.3496 48.4284 27.2114C47.7264 26.9791 47.0809 27.1523 46.524 27.3496C46.0675 27.5077 45.7891 27.7374 45.5422 27.9395C45.4343 28.0289 45.3202 28.1237 45.2095 28.198C45.1009 28.2613 45.0033 28.3052 44.9111 28.3492C44.6939 28.4503 44.4471 28.5658 44.1741 28.8085C43.9844 28.9749 43.3402 29.3949 43.191 29.4327C43.1243 29.43 43.0583 29.4032 42.938 29.3516C42.7826 29.2842 42.5709 29.1942 42.3261 29.1742L42.1769 29.1653C42.1309 29.1653 42.0834 29.1681 42.0484 29.1715C41.7362 29.1949 41.5169 29.2966 41.3554 29.3702C41.2921 29.3991 41.2275 29.4321 41.1464 29.452C40.9085 29.5111 40.6404 29.507 40.3709 29.4926C39.9398 29.4706 39.517 29.4829 39.1292 29.5929C38.8109 29.683 38.5806 29.8384 38.4129 29.9525C38.2321 30.0749 38.1887 30.0962 38.12 30.0969C38.0506 30.0969 38.0011 30.068 37.8092 29.9167C37.6195 29.7669 37.3589 29.5613 36.9746 29.4547C36.6976 29.3805 36.5002 29.3564 36.2913 29.331L36.1008 29.3076C35.7399 29.2554 35.4821 29.2341 35.1899 29.21C35.0544 29.199 34.9114 29.188 34.7444 29.1715L34.5505 29.1681L34.5189 29.1804C34.4962 29.1818 34.4694 29.1832 34.4398 29.1846L34.4323 29.1797C34.2122 29.0264 33.9847 28.869 33.6506 28.7067C33.4044 28.5857 33.2044 28.4936 32.9844 28.4146C32.9747 28.1691 32.9473 27.8419 32.8737 27.6219C32.8579 27.5717 32.8414 27.5277 32.8201 27.4727C32.8276 27.4411 32.8414 27.3881 32.8682 27.3077C32.9576 27.0492 33.0964 26.8553 33.1569 26.7776C33.1941 26.7522 33.2284 26.7302 33.2614 26.7082C33.39 26.6257 33.5488 26.5226 33.7124 26.3452C34.171 25.8598 34.3793 25.3916 34.4316 24.7248C34.4728 24.1294 34.1407 23.7293 33.9207 23.4639C33.8575 23.3889 33.7599 23.2714 33.7461 23.2563C33.7757 23.1401 33.8272 23.0899 34.1146 22.8994C34.2714 22.7956 34.435 22.6849 34.5911 22.5481C34.7684 22.3948 34.9389 22.2979 35.1356 22.1858C35.4436 22.0105 35.7921 21.8118 36.1256 21.4103ZM20.0291 47.1022C19.2468 45.2727 18.7229 43.3065 18.4994 41.2509C18.6679 40.9346 18.8721 40.628 19.1498 40.2897C19.3485 40.0526 19.5596 39.9089 19.8029 39.7432C20.0993 39.5411 20.4354 39.3114 20.7538 38.9134C21.136 38.4479 21.2611 37.9516 21.3622 37.5521C21.4708 37.1238 21.5327 36.9107 21.7596 36.7533C22.0758 36.5374 22.3261 36.514 22.7798 36.4714C22.9427 36.4569 23.1153 36.4397 23.3057 36.4129L23.5588 36.3758C24.4511 36.2445 25.0211 36.1854 25.7629 36.3944C26.2661 36.5353 26.5762 36.7704 26.9688 37.0674C27.2273 37.2634 27.5201 37.4848 27.8941 37.6986C28.1842 37.8643 28.4297 38.0471 28.6669 38.2238C29.1969 38.6178 29.7449 39.0247 30.6558 39.1581C31.1783 39.2303 31.6183 39.0688 31.9517 38.9429C32.1188 38.879 32.2769 38.8192 32.3752 38.8192C32.3979 38.8192 32.4268 38.8213 32.4736 38.8467C32.9239 39.0969 33.0243 39.3046 33.0428 39.4469C32.9466 39.4737 32.807 39.4977 32.7046 39.5163C32.2213 39.6009 31.322 39.7583 31.2182 40.6844C31.1659 41.1313 31.3193 41.4111 31.4588 41.5664C31.8191 41.9728 32.4907 41.9294 33.2477 41.7589C33.5736 41.6854 33.9111 41.6084 34.1813 41.6084C34.3044 41.6084 34.3772 41.6249 34.4102 41.6366C34.6096 41.7087 34.8248 41.7617 35.0345 41.8112C35.1266 41.8325 35.2497 41.8614 35.3556 41.8902C35.2779 41.9047 35.1981 41.9191 35.1308 41.9308C34.8138 41.9851 34.4556 42.047 34.1277 42.2031C33.8692 42.3234 33.6485 42.4375 33.4416 42.5454C33.0194 42.7641 32.6853 42.9373 32.1766 43.0755C32.0212 43.1168 31.7854 43.0817 31.5372 43.0397C31.3406 43.0061 31.1378 42.9717 30.9233 42.9717C30.4159 42.9717 30.0164 43.1731 29.7387 43.5664C29.1034 44.4546 29.4802 45.3834 29.6617 45.831C29.9085 46.4381 30.4901 47.162 31.8527 47.162C32.4942 47.162 33.236 47.0059 34.1868 46.6718C34.8427 46.4394 35.227 46.0194 35.535 45.6811C35.7839 45.4075 35.9805 45.1916 36.2981 45.05L36.6481 44.8905C37.3686 44.5584 37.8959 44.3219 38.4624 44.5887C38.6143 44.6602 38.6803 44.7963 38.8185 45.1373C38.9787 45.5347 39.1987 46.0792 39.8113 46.4051C40.3688 46.7007 41.0653 46.5934 41.574 46.4477C41.8792 46.3604 42.124 46.2854 42.3014 46.3893C42.4877 46.4999 42.5647 46.6498 42.7063 46.9509C42.8328 47.2197 42.9896 47.5539 43.2927 47.8715C43.3835 47.9671 43.4688 48.0599 43.5506 48.1493C44.0531 48.6999 44.5289 49.2197 45.4701 49.4424C45.6055 49.4741 45.7437 49.4899 45.8812 49.4899C46.3624 49.4899 46.7495 49.2981 47.0602 49.1434C47.327 49.0114 47.5326 48.9124 47.7003 48.9646C48.4022 49.1942 48.548 49.3517 48.614 49.6322C48.6718 49.857 48.4339 50.0461 47.5525 50.4716C47.4122 50.5397 47.2727 50.6071 47.14 50.6758C46.6663 50.9199 46.3116 50.9501 45.7746 50.9962C45.5601 51.0141 45.3312 51.034 45.0844 51.0677C44.5859 51.1303 44.1356 51.2382 43.6997 51.3427C43.1972 51.4637 42.7221 51.5771 42.3089 51.5771C41.8958 51.5771 41.5658 51.4637 41.2468 51.2134C40.9855 51.0044 40.8645 50.7824 40.6967 50.4757C40.5751 50.253 40.4376 50.0007 40.2203 49.7133C40.0285 49.4713 39.8635 49.1234 39.704 48.7859C39.352 48.0413 38.9141 47.1146 37.9179 47.1146C37.7481 47.1146 37.5714 47.1448 37.3926 47.2053C36.6185 47.4659 36.3607 48.086 36.1723 48.5384C36.0912 48.7329 36.0149 48.9165 35.9117 49.0677C35.6539 49.4356 35.524 49.8261 35.4085 50.1705C35.2153 50.7487 35.1548 50.8167 35.0008 50.8394C34.7526 50.8752 34.5966 50.77 34.2274 50.5033C34.1174 50.4235 34.0033 50.3403 33.8822 50.2606C33.6444 50.1024 33.5041 49.9271 33.3261 49.7044C33.1274 49.4562 32.9019 49.1743 32.5327 48.9089C32.1223 48.6064 31.7517 48.4614 31.4251 48.3328C31.1611 48.2297 30.9329 48.1403 30.6812 47.9732C30.5857 47.9093 30.5011 47.8021 30.4028 47.6769C30.1794 47.3937 29.8418 46.9654 29.1749 46.9413L29.1055 46.9399C28.6029 46.9399 27.901 47.1187 27.4101 47.9691C27.2321 48.2771 27.1076 48.6931 26.9742 49.1331C26.7584 49.8515 26.4621 50.8339 25.998 50.8339H25.9973C25.5174 50.8016 24.1046 49.5648 23.4254 48.9701C22.9386 48.5439 22.5179 48.1761 22.2147 47.9753L21.9864 47.8179C21.4674 47.4569 20.9325 47.085 20.2257 47.085C20.1611 47.085 20.0951 47.0953 20.0291 47.1022ZM39 59.625C31.1047 59.625 24.2476 55.1865 20.7819 48.669C20.9139 48.7494 21.0521 48.8423 21.1999 48.9447L21.4488 49.1159C21.6798 49.2692 22.0868 49.6246 22.5179 50.0021C23.9479 51.2533 25.0273 52.1436 25.9066 52.2034C27.4603 52.3059 27.9594 50.6215 28.2894 49.527C28.3932 49.1812 28.5019 48.8237 28.5995 48.6532C28.7817 48.3383 28.9556 48.3122 29.1302 48.3115C29.1687 48.3321 29.2602 48.449 29.3207 48.526C29.4623 48.7061 29.6397 48.9303 29.9167 49.1152C30.2928 49.3647 30.6263 49.4954 30.9219 49.6109C31.2051 49.7216 31.4499 49.8178 31.7208 50.0186C31.9442 50.1781 32.0858 50.3561 32.2508 50.5617C32.4633 50.8264 32.7025 51.1254 33.1205 51.4046C33.2264 51.4747 33.324 51.5455 33.4189 51.6136C33.8644 51.9381 34.3779 52.3128 35.1926 52.1993C36.2273 52.0508 36.5181 51.1811 36.7106 50.6057C36.8048 50.3252 36.8935 50.0605 37.0413 49.8481C37.2283 49.5744 37.3411 49.3042 37.4394 49.0664C37.6161 48.6429 37.6745 48.5597 37.8299 48.5074C37.878 48.4909 37.9041 48.4861 37.922 48.4889C38.0616 48.5329 38.3201 49.0794 38.4589 49.373C38.6425 49.7614 38.8508 50.2014 39.1313 50.5548C39.2778 50.748 39.3795 50.9357 39.4888 51.1337C39.6854 51.4946 39.9089 51.9044 40.3908 52.2907C40.9594 52.7356 41.5857 52.9521 42.3076 52.9521C42.8837 52.9521 43.4357 52.8201 44.0187 52.6799C44.4182 52.5836 44.8321 52.4846 45.2618 52.431C45.49 52.4001 45.6962 52.3829 45.8894 52.3657C46.4876 52.3155 47.052 52.2667 47.7698 51.8968C47.8921 51.8336 48.02 51.7717 48.1493 51.7098C49.0052 51.2959 50.2991 50.671 49.9478 49.3042C49.681 48.1671 48.6697 47.8357 48.1211 47.657C47.9478 47.602 47.7698 47.5738 47.5917 47.5738C47.129 47.5738 46.7509 47.7615 46.447 47.9128C46.183 48.0441 45.9623 48.1451 45.7829 48.1046C45.2563 47.9794 44.9957 47.6941 44.5646 47.2225C44.4773 47.1262 44.3859 47.0279 44.2882 46.9241C44.1384 46.7667 44.0511 46.5811 43.95 46.3659C43.7768 45.9974 43.5616 45.5388 43.0033 45.2067C42.4423 44.8733 41.7177 44.9751 41.1917 45.127C40.8886 45.2143 40.6438 45.2913 40.4568 45.1909C40.3001 45.1084 40.2292 44.9627 40.0931 44.6238C39.9281 44.2147 39.7026 43.6544 39.0481 43.3457C38.6851 43.1752 38.3242 43.092 37.9461 43.092C37.2654 43.092 36.6852 43.3601 36.0706 43.6441L35.7385 43.796C35.1576 44.0545 34.8035 44.4436 34.5182 44.7564C34.2514 45.0493 34.0589 45.2604 33.7296 45.3766C32.9417 45.6536 32.3278 45.7891 31.8534 45.7891C31.2154 45.7891 31.0319 45.5484 30.9363 45.3154C30.7039 44.7427 30.7259 44.5536 30.9239 44.3494C31.0443 44.3494 31.1728 44.3749 31.3069 44.3976C31.6657 44.4581 32.1319 44.5103 32.532 44.4065C33.1879 44.2291 33.6189 44.005 34.0754 43.7678C34.2666 43.6681 34.4694 43.5629 34.7127 43.4495C34.8743 43.3732 35.1239 43.3299 35.3638 43.2886C35.898 43.1965 37.0111 43.0061 36.9299 41.8559C36.8468 40.8274 35.9097 40.6074 35.3494 40.4754C35.1919 40.4382 35.0304 40.4025 34.8757 40.3461C34.6804 40.2767 34.4673 40.2409 34.2267 40.2368C34.3271 40.0883 34.3965 39.9041 34.4158 39.6731C34.4742 38.8316 34.0459 38.1503 33.1404 37.6477C32.8998 37.515 32.6427 37.4476 32.3766 37.4476C32.0246 37.4476 31.7269 37.5611 31.4643 37.6614C31.2278 37.7508 31.0216 37.8251 30.8531 37.801C30.2894 37.7185 29.9532 37.4689 29.4891 37.1238C29.232 36.9327 28.9398 36.7154 28.5782 36.5078C28.2805 36.3387 28.0481 36.162 27.8013 35.9757C27.3538 35.6367 26.8911 35.2854 26.1376 35.0737C25.1785 34.8042 24.3618 34.8702 23.3594 35.0187L23.1126 35.0551C22.9489 35.0785 22.7977 35.0922 22.6547 35.1053C22.1343 35.1541 21.5966 35.2043 20.982 35.6237C20.3172 36.0857 20.1591 36.7134 20.0312 37.218C19.9501 37.5391 19.8793 37.8161 19.6867 38.0519C19.4922 38.2953 19.288 38.4342 19.0302 38.6102C18.8274 38.7484 18.606 38.9024 18.3791 39.1148C18.3778 39.0742 18.375 39.0378 18.375 39C18.375 28.9542 25.5594 20.5894 35.0696 18.7538C35.1459 18.8721 35.2243 18.9869 35.2992 19.0907C35.5384 19.4207 35.5976 19.5259 35.5817 19.7198C35.5646 19.9473 35.4779 20.0566 35.2071 20.3688L35.0723 20.5269C34.8936 20.7414 34.71 20.8466 34.4549 20.9916C34.2294 21.1209 33.973 21.2666 33.6911 21.51C33.5791 21.6076 33.4643 21.6819 33.3556 21.7534C33.0277 21.9706 32.5781 22.269 32.4131 22.9228C32.2453 23.5986 32.6324 24.0654 32.8641 24.3446C32.9383 24.4353 33.0641 24.5866 33.0614 24.6271C33.0339 24.9777 32.9603 25.1448 32.708 25.4109C32.6592 25.4645 32.6166 25.4927 32.5183 25.5566C32.4406 25.6061 32.3588 25.6597 32.268 25.7292L32.1848 25.8048C32.1436 25.8481 31.7819 26.2469 31.5674 26.8711C31.4045 27.3627 31.3976 27.6191 31.5372 27.9698L31.5674 28.0509C31.5922 28.1341 31.6156 28.4269 31.6169 28.616L31.5592 29.4534L32.1188 29.5929C32.4866 29.6844 32.6729 29.7607 33.049 29.9463C33.2903 30.0625 33.4491 30.1732 33.6499 30.3127L33.852 30.4496C34.1215 30.6104 34.3951 30.5822 34.6859 30.5499C34.831 30.5644 34.9589 30.574 35.0806 30.5843C35.3452 30.6049 35.579 30.6242 35.9117 30.6723L36.1276 30.6991C36.2954 30.7198 36.4288 30.7342 36.6144 30.7837C36.7203 30.8132 36.8103 30.882 36.9595 30.9989C37.2139 31.1996 37.5624 31.4739 38.1317 31.4739C38.6294 31.4705 38.9512 31.2519 39.1863 31.0917C39.3224 30.9996 39.4042 30.9459 39.506 30.9177C39.7453 30.8497 40.0189 30.8524 40.2973 30.8669C40.6988 30.8896 41.1051 30.8813 41.4819 30.7878C41.6572 30.7438 41.7968 30.6833 41.9301 30.6214C42.047 30.5678 42.0903 30.5493 42.1047 30.5465L42.1543 30.5479L42.19 30.5438C42.2354 30.5472 42.3062 30.5774 42.3956 30.6153C42.5723 30.6909 42.8136 30.7954 43.1779 30.8077C43.9198 30.8077 45.0693 29.8521 45.083 29.8404C45.2109 29.7277 45.3174 29.6782 45.4948 29.595C45.6199 29.5366 45.7512 29.474 45.9321 29.3688C46.1218 29.243 46.2731 29.1206 46.4161 29.0031C46.6182 28.8374 46.7509 28.7274 46.9798 28.6476C47.459 28.4771 47.6873 28.4139 47.9843 28.5142C48.1541 28.5734 48.2228 28.6208 48.4421 28.7989C48.5494 28.8855 48.6064 28.968 48.7027 29.1048C48.7962 29.2389 48.8952 29.3778 49.0293 29.5208C49.0891 29.5874 49.1386 29.65 49.1853 29.7098C49.3352 29.8989 49.5215 30.1354 49.8708 30.3279C50.3059 30.5644 50.8387 30.53 51.2306 30.4509C51.4066 30.4152 51.5434 30.3822 51.6899 30.4049L51.9333 30.4379C52.101 30.4592 52.222 30.475 52.3396 30.5135C52.3987 30.5314 52.4606 30.5561 52.5348 30.596C52.8359 30.7562 52.9487 30.8992 53.2134 31.2952C53.4485 31.6541 53.5001 31.9181 53.5942 32.3979L53.6431 32.6434C53.7262 33.0662 53.7352 33.3536 53.7469 33.7509L53.7606 34.1297C53.7682 34.3119 53.7826 34.4714 53.7977 34.622C53.8273 34.9231 53.8466 35.1225 53.7785 35.4044C53.7379 35.5763 53.6561 35.6897 53.5021 35.8918C53.3275 36.1208 53.1102 36.4061 52.9934 36.833L52.959 36.9499C52.8346 37.3761 52.7163 37.779 52.849 38.3751C52.8799 38.5077 52.8737 38.8976 52.8689 39.1822C52.8559 39.9604 52.8483 40.4747 53.1742 40.8061C53.3234 40.958 53.5214 41.0412 53.7318 41.0412L53.9449 41.0268L54.0851 40.9594C54.2811 40.8659 54.4509 40.7318 54.6035 40.5833C54.609 40.5957 54.6138 40.6074 54.6186 40.6197C54.8077 41.0419 55.2119 41.2846 55.7289 41.2846C56.2954 41.2846 57.4422 40.8831 57.5206 40.1399C57.5391 39.9439 57.5316 39.7666 57.5219 39.5995C57.5075 39.3582 57.5123 39.3114 57.5584 39.2379C57.5852 39.2173 57.7007 39.1836 57.777 39.1623C58.0176 39.0928 58.3456 38.9993 58.6494 38.7057C58.9155 38.4417 59.0344 38.1764 59.13 37.9639C59.2015 37.8044 59.2428 37.7171 59.3266 37.6305C59.3761 37.5782 59.4435 37.5439 59.5659 37.4854C59.6003 37.9859 59.625 38.4899 59.625 39C59.625 50.3905 50.3905 59.625 39 59.625Z"/>
</mask>
<path d="M39 17C26.8498 17 17 26.8498 17 39C17 51.1502 26.8498 61 39 61C51.1502 61 61 51.1502 61 39C61 26.8498 51.1502 17 39 17ZM36.1256 21.4103L36.2466 21.2694C36.5532 20.9153 36.9004 20.5145 36.9526 19.8256C36.998 19.2529 36.7959 18.8487 36.5772 18.5214C37.3727 18.4279 38.1798 18.375 39 18.375C40.0072 18.375 40.9958 18.4506 41.9645 18.5902C42.1446 18.815 42.3811 19.0494 42.7648 19.2069C43.1718 19.3822 43.6523 19.5211 44.2573 19.3781C44.4361 19.3354 44.5749 19.2598 44.6946 19.1773C45.1194 19.299 45.5395 19.431 45.9534 19.5788C46.0984 19.9975 46.3769 20.4966 47.0561 20.5826C47.4384 20.6369 47.7581 20.5771 48.0379 20.4567C53.8644 23.3023 58.1455 28.8119 59.306 35.3989C59.1932 35.6367 59.1768 35.8705 59.1733 36.0183C59.1719 36.0596 59.1754 36.1015 59.1788 36.1125C59.1541 36.151 59.1224 36.1709 58.9691 36.2445C58.7938 36.3291 58.5546 36.4446 58.3339 36.6769C58.0829 36.9361 57.9674 37.1926 57.8746 37.3988C57.8024 37.5597 57.7612 37.647 57.6862 37.7219C57.6381 37.7687 57.5446 37.7969 57.3975 37.8395C57.1101 37.922 56.6763 38.0464 56.3848 38.5187C56.1077 38.9649 56.1311 39.3774 56.1476 39.6786C56.1497 39.7129 56.1524 39.748 56.1538 39.7837C56.1009 39.8099 56.0363 39.8367 55.9689 39.8587C56.0088 39.6414 56.0143 39.341 55.8197 39.0323C55.5571 38.6315 55.2099 38.571 55.027 38.571C54.6777 38.571 54.4144 38.7717 54.2453 38.9361C54.2487 38.6033 54.2412 38.2967 54.1869 38.0671C54.136 37.8361 54.1683 37.7075 54.2769 37.3349L54.3148 37.2043C54.3636 37.0269 54.4605 36.9004 54.5939 36.7244C54.7774 36.4838 55.0057 36.1847 55.1143 35.7227C55.236 35.2194 55.2002 34.8482 55.1652 34.4886C55.1521 34.3614 55.1391 34.2274 55.1329 34.0727L55.1198 33.709C55.1061 33.2814 55.0951 32.9122 54.9899 32.3732L54.9424 32.1332C54.8366 31.5922 54.7444 31.1254 54.3581 30.5362C54.0274 30.0419 53.7661 29.6947 53.1866 29.3867C53.0497 29.3118 52.9074 29.2513 52.7624 29.2059C52.5279 29.1275 52.3134 29.1007 52.1058 29.0739L51.8913 29.045C51.5249 28.9914 51.1949 29.0553 50.9522 29.1048C50.7556 29.1447 50.6304 29.177 50.5321 29.1227C50.4338 29.0691 50.3871 29.0127 50.2654 28.8587C50.2008 28.7769 50.1327 28.6909 50.0426 28.5913C49.9519 28.4936 49.89 28.4029 49.8302 28.3169C49.7119 28.1485 49.5655 27.9381 49.3077 27.7298C49.0327 27.5064 48.823 27.3496 48.4284 27.2114C47.7264 26.9791 47.0809 27.1523 46.524 27.3496C46.0675 27.5077 45.7891 27.7374 45.5422 27.9395C45.4343 28.0289 45.3202 28.1237 45.2095 28.198C45.1009 28.2613 45.0033 28.3052 44.9111 28.3492C44.6939 28.4503 44.4471 28.5658 44.1741 28.8085C43.9844 28.9749 43.3402 29.3949 43.191 29.4327C43.1243 29.43 43.0583 29.4032 42.938 29.3516C42.7826 29.2842 42.5709 29.1942 42.3261 29.1742L42.1769 29.1653C42.1309 29.1653 42.0834 29.1681 42.0484 29.1715C41.7362 29.1949 41.5169 29.2966 41.3554 29.3702C41.2921 29.3991 41.2275 29.4321 41.1464 29.452C40.9085 29.5111 40.6404 29.507 40.3709 29.4926C39.9398 29.4706 39.517 29.4829 39.1292 29.5929C38.8109 29.683 38.5806 29.8384 38.4129 29.9525C38.2321 30.0749 38.1887 30.0962 38.12 30.0969C38.0506 30.0969 38.0011 30.068 37.8092 29.9167C37.6195 29.7669 37.3589 29.5613 36.9746 29.4547C36.6976 29.3805 36.5002 29.3564 36.2913 29.331L36.1008 29.3076C35.7399 29.2554 35.4821 29.2341 35.1899 29.21C35.0544 29.199 34.9114 29.188 34.7444 29.1715L34.5505 29.1681L34.5189 29.1804C34.4962 29.1818 34.4694 29.1832 34.4398 29.1846L34.4323 29.1797C34.2122 29.0264 33.9847 28.869 33.6506 28.7067C33.4044 28.5857 33.2044 28.4936 32.9844 28.4146C32.9747 28.1691 32.9473 27.8419 32.8737 27.6219C32.8579 27.5717 32.8414 27.5277 32.8201 27.4727C32.8276 27.4411 32.8414 27.3881 32.8682 27.3077C32.9576 27.0492 33.0964 26.8553 33.1569 26.7776C33.1941 26.7522 33.2284 26.7302 33.2614 26.7082C33.39 26.6257 33.5488 26.5226 33.7124 26.3452C34.171 25.8598 34.3793 25.3916 34.4316 24.7248C34.4728 24.1294 34.1407 23.7293 33.9207 23.4639C33.8575 23.3889 33.7599 23.2714 33.7461 23.2563C33.7757 23.1401 33.8272 23.0899 34.1146 22.8994C34.2714 22.7956 34.435 22.6849 34.5911 22.5481C34.7684 22.3948 34.9389 22.2979 35.1356 22.1858C35.4436 22.0105 35.7921 21.8118 36.1256 21.4103ZM20.0291 47.1022C19.2468 45.2727 18.7229 43.3065 18.4994 41.2509C18.6679 40.9346 18.8721 40.628 19.1498 40.2897C19.3485 40.0526 19.5596 39.9089 19.8029 39.7432C20.0993 39.5411 20.4354 39.3114 20.7538 38.9134C21.136 38.4479 21.2611 37.9516 21.3622 37.5521C21.4708 37.1238 21.5327 36.9107 21.7596 36.7533C22.0758 36.5374 22.3261 36.514 22.7798 36.4714C22.9427 36.4569 23.1153 36.4397 23.3057 36.4129L23.5588 36.3758C24.4511 36.2445 25.0211 36.1854 25.7629 36.3944C26.2661 36.5353 26.5762 36.7704 26.9688 37.0674C27.2273 37.2634 27.5201 37.4848 27.8941 37.6986C28.1842 37.8643 28.4297 38.0471 28.6669 38.2238C29.1969 38.6178 29.7449 39.0247 30.6558 39.1581C31.1783 39.2303 31.6183 39.0688 31.9517 38.9429C32.1188 38.879 32.2769 38.8192 32.3752 38.8192C32.3979 38.8192 32.4268 38.8213 32.4736 38.8467C32.9239 39.0969 33.0243 39.3046 33.0428 39.4469C32.9466 39.4737 32.807 39.4977 32.7046 39.5163C32.2213 39.6009 31.322 39.7583 31.2182 40.6844C31.1659 41.1313 31.3193 41.4111 31.4588 41.5664C31.8191 41.9728 32.4907 41.9294 33.2477 41.7589C33.5736 41.6854 33.9111 41.6084 34.1813 41.6084C34.3044 41.6084 34.3772 41.6249 34.4102 41.6366C34.6096 41.7087 34.8248 41.7617 35.0345 41.8112C35.1266 41.8325 35.2497 41.8614 35.3556 41.8902C35.2779 41.9047 35.1981 41.9191 35.1308 41.9308C34.8138 41.9851 34.4556 42.047 34.1277 42.2031C33.8692 42.3234 33.6485 42.4375 33.4416 42.5454C33.0194 42.7641 32.6853 42.9373 32.1766 43.0755C32.0212 43.1168 31.7854 43.0817 31.5372 43.0397C31.3406 43.0061 31.1378 42.9717 30.9233 42.9717C30.4159 42.9717 30.0164 43.1731 29.7387 43.5664C29.1034 44.4546 29.4802 45.3834 29.6617 45.831C29.9085 46.4381 30.4901 47.162 31.8527 47.162C32.4942 47.162 33.236 47.0059 34.1868 46.6718C34.8427 46.4394 35.227 46.0194 35.535 45.6811C35.7839 45.4075 35.9805 45.1916 36.2981 45.05L36.6481 44.8905C37.3686 44.5584 37.8959 44.3219 38.4624 44.5887C38.6143 44.6602 38.6803 44.7963 38.8185 45.1373C38.9787 45.5347 39.1987 46.0792 39.8113 46.4051C40.3688 46.7007 41.0653 46.5934 41.574 46.4477C41.8792 46.3604 42.124 46.2854 42.3014 46.3893C42.4877 46.4999 42.5647 46.6498 42.7063 46.9509C42.8328 47.2197 42.9896 47.5539 43.2927 47.8715C43.3835 47.9671 43.4688 48.0599 43.5506 48.1493C44.0531 48.6999 44.5289 49.2197 45.4701 49.4424C45.6055 49.4741 45.7437 49.4899 45.8812 49.4899C46.3624 49.4899 46.7495 49.2981 47.0602 49.1434C47.327 49.0114 47.5326 48.9124 47.7003 48.9646C48.4022 49.1942 48.548 49.3517 48.614 49.6322C48.6718 49.857 48.4339 50.0461 47.5525 50.4716C47.4122 50.5397 47.2727 50.6071 47.14 50.6758C46.6663 50.9199 46.3116 50.9501 45.7746 50.9962C45.5601 51.0141 45.3312 51.034 45.0844 51.0677C44.5859 51.1303 44.1356 51.2382 43.6997 51.3427C43.1972 51.4637 42.7221 51.5771 42.3089 51.5771C41.8958 51.5771 41.5658 51.4637 41.2468 51.2134C40.9855 51.0044 40.8645 50.7824 40.6967 50.4757C40.5751 50.253 40.4376 50.0007 40.2203 49.7133C40.0285 49.4713 39.8635 49.1234 39.704 48.7859C39.352 48.0413 38.9141 47.1146 37.9179 47.1146C37.7481 47.1146 37.5714 47.1448 37.3926 47.2053C36.6185 47.4659 36.3607 48.086 36.1723 48.5384C36.0912 48.7329 36.0149 48.9165 35.9117 49.0677C35.6539 49.4356 35.524 49.8261 35.4085 50.1705C35.2153 50.7487 35.1548 50.8167 35.0008 50.8394C34.7526 50.8752 34.5966 50.77 34.2274 50.5033C34.1174 50.4235 34.0033 50.3403 33.8822 50.2606C33.6444 50.1024 33.5041 49.9271 33.3261 49.7044C33.1274 49.4562 32.9019 49.1743 32.5327 48.9089C32.1223 48.6064 31.7517 48.4614 31.4251 48.3328C31.1611 48.2297 30.9329 48.1403 30.6812 47.9732C30.5857 47.9093 30.5011 47.8021 30.4028 47.6769C30.1794 47.3937 29.8418 46.9654 29.1749 46.9413L29.1055 46.9399C28.6029 46.9399 27.901 47.1187 27.4101 47.9691C27.2321 48.2771 27.1076 48.6931 26.9742 49.1331C26.7584 49.8515 26.4621 50.8339 25.998 50.8339H25.9973C25.5174 50.8016 24.1046 49.5648 23.4254 48.9701C22.9386 48.5439 22.5179 48.1761 22.2147 47.9753L21.9864 47.8179C21.4674 47.4569 20.9325 47.085 20.2257 47.085C20.1611 47.085 20.0951 47.0953 20.0291 47.1022ZM39 59.625C31.1047 59.625 24.2476 55.1865 20.7819 48.669C20.9139 48.7494 21.0521 48.8423 21.1999 48.9447L21.4488 49.1159C21.6798 49.2692 22.0868 49.6246 22.5179 50.0021C23.9479 51.2533 25.0273 52.1436 25.9066 52.2034C27.4603 52.3059 27.9594 50.6215 28.2894 49.527C28.3932 49.1812 28.5019 48.8237 28.5995 48.6532C28.7817 48.3383 28.9556 48.3122 29.1302 48.3115C29.1687 48.3321 29.2602 48.449 29.3207 48.526C29.4623 48.7061 29.6397 48.9303 29.9167 49.1152C30.2928 49.3647 30.6263 49.4954 30.9219 49.6109C31.2051 49.7216 31.4499 49.8178 31.7208 50.0186C31.9442 50.1781 32.0858 50.3561 32.2508 50.5617C32.4633 50.8264 32.7025 51.1254 33.1205 51.4046C33.2264 51.4747 33.324 51.5455 33.4189 51.6136C33.8644 51.9381 34.3779 52.3128 35.1926 52.1993C36.2273 52.0508 36.5181 51.1811 36.7106 50.6057C36.8048 50.3252 36.8935 50.0605 37.0413 49.8481C37.2283 49.5744 37.3411 49.3042 37.4394 49.0664C37.6161 48.6429 37.6745 48.5597 37.8299 48.5074C37.878 48.4909 37.9041 48.4861 37.922 48.4889C38.0616 48.5329 38.3201 49.0794 38.4589 49.373C38.6425 49.7614 38.8508 50.2014 39.1313 50.5548C39.2778 50.748 39.3795 50.9357 39.4888 51.1337C39.6854 51.4946 39.9089 51.9044 40.3908 52.2907C40.9594 52.7356 41.5857 52.9521 42.3076 52.9521C42.8837 52.9521 43.4357 52.8201 44.0187 52.6799C44.4182 52.5836 44.8321 52.4846 45.2618 52.431C45.49 52.4001 45.6962 52.3829 45.8894 52.3657C46.4876 52.3155 47.052 52.2667 47.7698 51.8968C47.8921 51.8336 48.02 51.7717 48.1493 51.7098C49.0052 51.2959 50.2991 50.671 49.9478 49.3042C49.681 48.1671 48.6697 47.8357 48.1211 47.657C47.9478 47.602 47.7698 47.5738 47.5917 47.5738C47.129 47.5738 46.7509 47.7615 46.447 47.9128C46.183 48.0441 45.9623 48.1451 45.7829 48.1046C45.2563 47.9794 44.9957 47.6941 44.5646 47.2225C44.4773 47.1262 44.3859 47.0279 44.2882 46.9241C44.1384 46.7667 44.0511 46.5811 43.95 46.3659C43.7768 45.9974 43.5616 45.5388 43.0033 45.2067C42.4423 44.8733 41.7177 44.9751 41.1917 45.127C40.8886 45.2143 40.6438 45.2913 40.4568 45.1909C40.3001 45.1084 40.2292 44.9627 40.0931 44.6238C39.9281 44.2147 39.7026 43.6544 39.0481 43.3457C38.6851 43.1752 38.3242 43.092 37.9461 43.092C37.2654 43.092 36.6852 43.3601 36.0706 43.6441L35.7385 43.796C35.1576 44.0545 34.8035 44.4436 34.5182 44.7564C34.2514 45.0493 34.0589 45.2604 33.7296 45.3766C32.9417 45.6536 32.3278 45.7891 31.8534 45.7891C31.2154 45.7891 31.0319 45.5484 30.9363 45.3154C30.7039 44.7427 30.7259 44.5536 30.9239 44.3494C31.0443 44.3494 31.1728 44.3749 31.3069 44.3976C31.6657 44.4581 32.1319 44.5103 32.532 44.4065C33.1879 44.2291 33.6189 44.005 34.0754 43.7678C34.2666 43.6681 34.4694 43.5629 34.7127 43.4495C34.8743 43.3732 35.1239 43.3299 35.3638 43.2886C35.898 43.1965 37.0111 43.0061 36.9299 41.8559C36.8468 40.8274 35.9097 40.6074 35.3494 40.4754C35.1919 40.4382 35.0304 40.4025 34.8757 40.3461C34.6804 40.2767 34.4673 40.2409 34.2267 40.2368C34.3271 40.0883 34.3965 39.9041 34.4158 39.6731C34.4742 38.8316 34.0459 38.1503 33.1404 37.6477C32.8998 37.515 32.6427 37.4476 32.3766 37.4476C32.0246 37.4476 31.7269 37.5611 31.4643 37.6614C31.2278 37.7508 31.0216 37.8251 30.8531 37.801C30.2894 37.7185 29.9532 37.4689 29.4891 37.1238C29.232 36.9327 28.9398 36.7154 28.5782 36.5078C28.2805 36.3387 28.0481 36.162 27.8013 35.9757C27.3538 35.6367 26.8911 35.2854 26.1376 35.0737C25.1785 34.8042 24.3618 34.8702 23.3594 35.0187L23.1126 35.0551C22.9489 35.0785 22.7977 35.0922 22.6547 35.1053C22.1343 35.1541 21.5966 35.2043 20.982 35.6237C20.3172 36.0857 20.1591 36.7134 20.0312 37.218C19.9501 37.5391 19.8793 37.8161 19.6867 38.0519C19.4922 38.2953 19.288 38.4342 19.0302 38.6102C18.8274 38.7484 18.606 38.9024 18.3791 39.1148C18.3778 39.0742 18.375 39.0378 18.375 39C18.375 28.9542 25.5594 20.5894 35.0696 18.7538C35.1459 18.8721 35.2243 18.9869 35.2992 19.0907C35.5384 19.4207 35.5976 19.5259 35.5817 19.7198C35.5646 19.9473 35.4779 20.0566 35.2071 20.3688L35.0723 20.5269C34.8936 20.7414 34.71 20.8466 34.4549 20.9916C34.2294 21.1209 33.973 21.2666 33.6911 21.51C33.5791 21.6076 33.4643 21.6819 33.3556 21.7534C33.0277 21.9706 32.5781 22.269 32.4131 22.9228C32.2453 23.5986 32.6324 24.0654 32.8641 24.3446C32.9383 24.4353 33.0641 24.5866 33.0614 24.6271C33.0339 24.9777 32.9603 25.1448 32.708 25.4109C32.6592 25.4645 32.6166 25.4927 32.5183 25.5566C32.4406 25.6061 32.3588 25.6597 32.268 25.7292L32.1848 25.8048C32.1436 25.8481 31.7819 26.2469 31.5674 26.8711C31.4045 27.3627 31.3976 27.6191 31.5372 27.9698L31.5674 28.0509C31.5922 28.1341 31.6156 28.4269 31.6169 28.616L31.5592 29.4534L32.1188 29.5929C32.4866 29.6844 32.6729 29.7607 33.049 29.9463C33.2903 30.0625 33.4491 30.1732 33.6499 30.3127L33.852 30.4496C34.1215 30.6104 34.3951 30.5822 34.6859 30.5499C34.831 30.5644 34.9589 30.574 35.0806 30.5843C35.3452 30.6049 35.579 30.6242 35.9117 30.6723L36.1276 30.6991C36.2954 30.7198 36.4288 30.7342 36.6144 30.7837C36.7203 30.8132 36.8103 30.882 36.9595 30.9989C37.2139 31.1996 37.5624 31.4739 38.1317 31.4739C38.6294 31.4705 38.9512 31.2519 39.1863 31.0917C39.3224 30.9996 39.4042 30.9459 39.506 30.9177C39.7453 30.8497 40.0189 30.8524 40.2973 30.8669C40.6988 30.8896 41.1051 30.8813 41.4819 30.7878C41.6572 30.7438 41.7968 30.6833 41.9301 30.6214C42.047 30.5678 42.0903 30.5493 42.1047 30.5465L42.1543 30.5479L42.19 30.5438C42.2354 30.5472 42.3062 30.5774 42.3956 30.6153C42.5723 30.6909 42.8136 30.7954 43.1779 30.8077C43.9198 30.8077 45.0693 29.8521 45.083 29.8404C45.2109 29.7277 45.3174 29.6782 45.4948 29.595C45.6199 29.5366 45.7512 29.474 45.9321 29.3688C46.1218 29.243 46.2731 29.1206 46.4161 29.0031C46.6182 28.8374 46.7509 28.7274 46.9798 28.6476C47.459 28.4771 47.6873 28.4139 47.9843 28.5142C48.1541 28.5734 48.2228 28.6208 48.4421 28.7989C48.5494 28.8855 48.6064 28.968 48.7027 29.1048C48.7962 29.2389 48.8952 29.3778 49.0293 29.5208C49.0891 29.5874 49.1386 29.65 49.1853 29.7098C49.3352 29.8989 49.5215 30.1354 49.8708 30.3279C50.3059 30.5644 50.8387 30.53 51.2306 30.4509C51.4066 30.4152 51.5434 30.3822 51.6899 30.4049L51.9333 30.4379C52.101 30.4592 52.222 30.475 52.3396 30.5135C52.3987 30.5314 52.4606 30.5561 52.5348 30.596C52.8359 30.7562 52.9487 30.8992 53.2134 31.2952C53.4485 31.6541 53.5001 31.9181 53.5942 32.3979L53.6431 32.6434C53.7262 33.0662 53.7352 33.3536 53.7469 33.7509L53.7606 34.1297C53.7682 34.3119 53.7826 34.4714 53.7977 34.622C53.8273 34.9231 53.8466 35.1225 53.7785 35.4044C53.7379 35.5763 53.6561 35.6897 53.5021 35.8918C53.3275 36.1208 53.1102 36.4061 52.9934 36.833L52.959 36.9499C52.8346 37.3761 52.7163 37.779 52.849 38.3751C52.8799 38.5077 52.8737 38.8976 52.8689 39.1822C52.8559 39.9604 52.8483 40.4747 53.1742 40.8061C53.3234 40.958 53.5214 41.0412 53.7318 41.0412L53.9449 41.0268L54.0851 40.9594C54.2811 40.8659 54.4509 40.7318 54.6035 40.5833C54.609 40.5957 54.6138 40.6074 54.6186 40.6197C54.8077 41.0419 55.2119 41.2846 55.7289 41.2846C56.2954 41.2846 57.4422 40.8831 57.5206 40.1399C57.5391 39.9439 57.5316 39.7666 57.5219 39.5995C57.5075 39.3582 57.5123 39.3114 57.5584 39.2379C57.5852 39.2173 57.7007 39.1836 57.777 39.1623C58.0176 39.0928 58.3456 38.9993 58.6494 38.7057C58.9155 38.4417 59.0344 38.1764 59.13 37.9639C59.2015 37.8044 59.2428 37.7171 59.3266 37.6305C59.3761 37.5782 59.4435 37.5439 59.5659 37.4854C59.6003 37.9859 59.625 38.4899 59.625 39C59.625 50.3905 50.3905 59.625 39 59.625Z" fill="#03624C"/>
<path d="M39 17C26.8498 17 17 26.8498 17 39C17 51.1502 26.8498 61 39 61C51.1502 61 61 51.1502 61 39C61 26.8498 51.1502 17 39 17ZM36.1256 21.4103L36.2466 21.2694C36.5532 20.9153 36.9004 20.5145 36.9526 19.8256C36.998 19.2529 36.7959 18.8487 36.5772 18.5214C37.3727 18.4279 38.1798 18.375 39 18.375C40.0072 18.375 40.9958 18.4506 41.9645 18.5902C42.1446 18.815 42.3811 19.0494 42.7648 19.2069C43.1718 19.3822 43.6523 19.5211 44.2573 19.3781C44.4361 19.3354 44.5749 19.2598 44.6946 19.1773C45.1194 19.299 45.5395 19.431 45.9534 19.5788C46.0984 19.9975 46.3769 20.4966 47.0561 20.5826C47.4384 20.6369 47.7581 20.5771 48.0379 20.4567C53.8644 23.3023 58.1455 28.8119 59.306 35.3989C59.1932 35.6367 59.1768 35.8705 59.1733 36.0183C59.1719 36.0596 59.1754 36.1015 59.1788 36.1125C59.1541 36.151 59.1224 36.1709 58.9691 36.2445C58.7938 36.3291 58.5546 36.4446 58.3339 36.6769C58.0829 36.9361 57.9674 37.1926 57.8746 37.3988C57.8024 37.5597 57.7612 37.647 57.6862 37.7219C57.6381 37.7687 57.5446 37.7969 57.3975 37.8395C57.1101 37.922 56.6763 38.0464 56.3848 38.5187C56.1077 38.9649 56.1311 39.3774 56.1476 39.6786C56.1497 39.7129 56.1524 39.748 56.1538 39.7837C56.1009 39.8099 56.0363 39.8367 55.9689 39.8587C56.0088 39.6414 56.0143 39.341 55.8197 39.0323C55.5571 38.6315 55.2099 38.571 55.027 38.571C54.6777 38.571 54.4144 38.7717 54.2453 38.9361C54.2487 38.6033 54.2412 38.2967 54.1869 38.0671C54.136 37.8361 54.1683 37.7075 54.2769 37.3349L54.3148 37.2043C54.3636 37.0269 54.4605 36.9004 54.5939 36.7244C54.7774 36.4838 55.0057 36.1847 55.1143 35.7227C55.236 35.2194 55.2002 34.8482 55.1652 34.4886C55.1521 34.3614 55.1391 34.2274 55.1329 34.0727L55.1198 33.709C55.1061 33.2814 55.0951 32.9122 54.9899 32.3732L54.9424 32.1332C54.8366 31.5922 54.7444 31.1254 54.3581 30.5362C54.0274 30.0419 53.7661 29.6947 53.1866 29.3867C53.0497 29.3118 52.9074 29.2513 52.7624 29.2059C52.5279 29.1275 52.3134 29.1007 52.1058 29.0739L51.8913 29.045C51.5249 28.9914 51.1949 29.0553 50.9522 29.1048C50.7556 29.1447 50.6304 29.177 50.5321 29.1227C50.4338 29.0691 50.3871 29.0127 50.2654 28.8587C50.2008 28.7769 50.1327 28.6909 50.0426 28.5913C49.9519 28.4936 49.89 28.4029 49.8302 28.3169C49.7119 28.1485 49.5655 27.9381 49.3077 27.7298C49.0327 27.5064 48.823 27.3496 48.4284 27.2114C47.7264 26.9791 47.0809 27.1523 46.524 27.3496C46.0675 27.5077 45.7891 27.7374 45.5422 27.9395C45.4343 28.0289 45.3202 28.1237 45.2095 28.198C45.1009 28.2613 45.0033 28.3052 44.9111 28.3492C44.6939 28.4503 44.4471 28.5658 44.1741 28.8085C43.9844 28.9749 43.3402 29.3949 43.191 29.4327C43.1243 29.43 43.0583 29.4032 42.938 29.3516C42.7826 29.2842 42.5709 29.1942 42.3261 29.1742L42.1769 29.1653C42.1309 29.1653 42.0834 29.1681 42.0484 29.1715C41.7362 29.1949 41.5169 29.2966 41.3554 29.3702C41.2921 29.3991 41.2275 29.4321 41.1464 29.452C40.9085 29.5111 40.6404 29.507 40.3709 29.4926C39.9398 29.4706 39.517 29.4829 39.1292 29.5929C38.8109 29.683 38.5806 29.8384 38.4129 29.9525C38.2321 30.0749 38.1887 30.0962 38.12 30.0969C38.0506 30.0969 38.0011 30.068 37.8092 29.9167C37.6195 29.7669 37.3589 29.5613 36.9746 29.4547C36.6976 29.3805 36.5002 29.3564 36.2913 29.331L36.1008 29.3076C35.7399 29.2554 35.4821 29.2341 35.1899 29.21C35.0544 29.199 34.9114 29.188 34.7444 29.1715L34.5505 29.1681L34.5189 29.1804C34.4962 29.1818 34.4694 29.1832 34.4398 29.1846L34.4323 29.1797C34.2122 29.0264 33.9847 28.869 33.6506 28.7067C33.4044 28.5857 33.2044 28.4936 32.9844 28.4146C32.9747 28.1691 32.9473 27.8419 32.8737 27.6219C32.8579 27.5717 32.8414 27.5277 32.8201 27.4727C32.8276 27.4411 32.8414 27.3881 32.8682 27.3077C32.9576 27.0492 33.0964 26.8553 33.1569 26.7776C33.1941 26.7522 33.2284 26.7302 33.2614 26.7082C33.39 26.6257 33.5488 26.5226 33.7124 26.3452C34.171 25.8598 34.3793 25.3916 34.4316 24.7248C34.4728 24.1294 34.1407 23.7293 33.9207 23.4639C33.8575 23.3889 33.7599 23.2714 33.7461 23.2563C33.7757 23.1401 33.8272 23.0899 34.1146 22.8994C34.2714 22.7956 34.435 22.6849 34.5911 22.5481C34.7684 22.3948 34.9389 22.2979 35.1356 22.1858C35.4436 22.0105 35.7921 21.8118 36.1256 21.4103ZM20.0291 47.1022C19.2468 45.2727 18.7229 43.3065 18.4994 41.2509C18.6679 40.9346 18.8721 40.628 19.1498 40.2897C19.3485 40.0526 19.5596 39.9089 19.8029 39.7432C20.0993 39.5411 20.4354 39.3114 20.7538 38.9134C21.136 38.4479 21.2611 37.9516 21.3622 37.5521C21.4708 37.1238 21.5327 36.9107 21.7596 36.7533C22.0758 36.5374 22.3261 36.514 22.7798 36.4714C22.9427 36.4569 23.1153 36.4397 23.3057 36.4129L23.5588 36.3758C24.4511 36.2445 25.0211 36.1854 25.7629 36.3944C26.2661 36.5353 26.5762 36.7704 26.9688 37.0674C27.2273 37.2634 27.5201 37.4848 27.8941 37.6986C28.1842 37.8643 28.4297 38.0471 28.6669 38.2238C29.1969 38.6178 29.7449 39.0247 30.6558 39.1581C31.1783 39.2303 31.6183 39.0688 31.9517 38.9429C32.1188 38.879 32.2769 38.8192 32.3752 38.8192C32.3979 38.8192 32.4268 38.8213 32.4736 38.8467C32.9239 39.0969 33.0243 39.3046 33.0428 39.4469C32.9466 39.4737 32.807 39.4977 32.7046 39.5163C32.2213 39.6009 31.322 39.7583 31.2182 40.6844C31.1659 41.1313 31.3193 41.4111 31.4588 41.5664C31.8191 41.9728 32.4907 41.9294 33.2477 41.7589C33.5736 41.6854 33.9111 41.6084 34.1813 41.6084C34.3044 41.6084 34.3772 41.6249 34.4102 41.6366C34.6096 41.7087 34.8248 41.7617 35.0345 41.8112C35.1266 41.8325 35.2497 41.8614 35.3556 41.8902C35.2779 41.9047 35.1981 41.9191 35.1308 41.9308C34.8138 41.9851 34.4556 42.047 34.1277 42.2031C33.8692 42.3234 33.6485 42.4375 33.4416 42.5454C33.0194 42.7641 32.6853 42.9373 32.1766 43.0755C32.0212 43.1168 31.7854 43.0817 31.5372 43.0397C31.3406 43.0061 31.1378 42.9717 30.9233 42.9717C30.4159 42.9717 30.0164 43.1731 29.7387 43.5664C29.1034 44.4546 29.4802 45.3834 29.6617 45.831C29.9085 46.4381 30.4901 47.162 31.8527 47.162C32.4942 47.162 33.236 47.0059 34.1868 46.6718C34.8427 46.4394 35.227 46.0194 35.535 45.6811C35.7839 45.4075 35.9805 45.1916 36.2981 45.05L36.6481 44.8905C37.3686 44.5584 37.8959 44.3219 38.4624 44.5887C38.6143 44.6602 38.6803 44.7963 38.8185 45.1373C38.9787 45.5347 39.1987 46.0792 39.8113 46.4051C40.3688 46.7007 41.0653 46.5934 41.574 46.4477C41.8792 46.3604 42.124 46.2854 42.3014 46.3893C42.4877 46.4999 42.5647 46.6498 42.7063 46.9509C42.8328 47.2197 42.9896 47.5539 43.2927 47.8715C43.3835 47.9671 43.4688 48.0599 43.5506 48.1493C44.0531 48.6999 44.5289 49.2197 45.4701 49.4424C45.6055 49.4741 45.7437 49.4899 45.8812 49.4899C46.3624 49.4899 46.7495 49.2981 47.0602 49.1434C47.327 49.0114 47.5326 48.9124 47.7003 48.9646C48.4022 49.1942 48.548 49.3517 48.614 49.6322C48.6718 49.857 48.4339 50.0461 47.5525 50.4716C47.4122 50.5397 47.2727 50.6071 47.14 50.6758C46.6663 50.9199 46.3116 50.9501 45.7746 50.9962C45.5601 51.0141 45.3312 51.034 45.0844 51.0677C44.5859 51.1303 44.1356 51.2382 43.6997 51.3427C43.1972 51.4637 42.7221 51.5771 42.3089 51.5771C41.8958 51.5771 41.5658 51.4637 41.2468 51.2134C40.9855 51.0044 40.8645 50.7824 40.6967 50.4757C40.5751 50.253 40.4376 50.0007 40.2203 49.7133C40.0285 49.4713 39.8635 49.1234 39.704 48.7859C39.352 48.0413 38.9141 47.1146 37.9179 47.1146C37.7481 47.1146 37.5714 47.1448 37.3926 47.2053C36.6185 47.4659 36.3607 48.086 36.1723 48.5384C36.0912 48.7329 36.0149 48.9165 35.9117 49.0677C35.6539 49.4356 35.524 49.8261 35.4085 50.1705C35.2153 50.7487 35.1548 50.8167 35.0008 50.8394C34.7526 50.8752 34.5966 50.77 34.2274 50.5033C34.1174 50.4235 34.0033 50.3403 33.8822 50.2606C33.6444 50.1024 33.5041 49.9271 33.3261 49.7044C33.1274 49.4562 32.9019 49.1743 32.5327 48.9089C32.1223 48.6064 31.7517 48.4614 31.4251 48.3328C31.1611 48.2297 30.9329 48.1403 30.6812 47.9732C30.5857 47.9093 30.5011 47.8021 30.4028 47.6769C30.1794 47.3937 29.8418 46.9654 29.1749 46.9413L29.1055 46.9399C28.6029 46.9399 27.901 47.1187 27.4101 47.9691C27.2321 48.2771 27.1076 48.6931 26.9742 49.1331C26.7584 49.8515 26.4621 50.8339 25.998 50.8339H25.9973C25.5174 50.8016 24.1046 49.5648 23.4254 48.9701C22.9386 48.5439 22.5179 48.1761 22.2147 47.9753L21.9864 47.8179C21.4674 47.4569 20.9325 47.085 20.2257 47.085C20.1611 47.085 20.0951 47.0953 20.0291 47.1022ZM39 59.625C31.1047 59.625 24.2476 55.1865 20.7819 48.669C20.9139 48.7494 21.0521 48.8423 21.1999 48.9447L21.4488 49.1159C21.6798 49.2692 22.0868 49.6246 22.5179 50.0021C23.9479 51.2533 25.0273 52.1436 25.9066 52.2034C27.4603 52.3059 27.9594 50.6215 28.2894 49.527C28.3932 49.1812 28.5019 48.8237 28.5995 48.6532C28.7817 48.3383 28.9556 48.3122 29.1302 48.3115C29.1687 48.3321 29.2602 48.449 29.3207 48.526C29.4623 48.7061 29.6397 48.9303 29.9167 49.1152C30.2928 49.3647 30.6263 49.4954 30.9219 49.6109C31.2051 49.7216 31.4499 49.8178 31.7208 50.0186C31.9442 50.1781 32.0858 50.3561 32.2508 50.5617C32.4633 50.8264 32.7025 51.1254 33.1205 51.4046C33.2264 51.4747 33.324 51.5455 33.4189 51.6136C33.8644 51.9381 34.3779 52.3128 35.1926 52.1993C36.2273 52.0508 36.5181 51.1811 36.7106 50.6057C36.8048 50.3252 36.8935 50.0605 37.0413 49.8481C37.2283 49.5744 37.3411 49.3042 37.4394 49.0664C37.6161 48.6429 37.6745 48.5597 37.8299 48.5074C37.878 48.4909 37.9041 48.4861 37.922 48.4889C38.0616 48.5329 38.3201 49.0794 38.4589 49.373C38.6425 49.7614 38.8508 50.2014 39.1313 50.5548C39.2778 50.748 39.3795 50.9357 39.4888 51.1337C39.6854 51.4946 39.9089 51.9044 40.3908 52.2907C40.9594 52.7356 41.5857 52.9521 42.3076 52.9521C42.8837 52.9521 43.4357 52.8201 44.0187 52.6799C44.4182 52.5836 44.8321 52.4846 45.2618 52.431C45.49 52.4001 45.6962 52.3829 45.8894 52.3657C46.4876 52.3155 47.052 52.2667 47.7698 51.8968C47.8921 51.8336 48.02 51.7717 48.1493 51.7098C49.0052 51.2959 50.2991 50.671 49.9478 49.3042C49.681 48.1671 48.6697 47.8357 48.1211 47.657C47.9478 47.602 47.7698 47.5738 47.5917 47.5738C47.129 47.5738 46.7509 47.7615 46.447 47.9128C46.183 48.0441 45.9623 48.1451 45.7829 48.1046C45.2563 47.9794 44.9957 47.6941 44.5646 47.2225C44.4773 47.1262 44.3859 47.0279 44.2882 46.9241C44.1384 46.7667 44.0511 46.5811 43.95 46.3659C43.7768 45.9974 43.5616 45.5388 43.0033 45.2067C42.4423 44.8733 41.7177 44.9751 41.1917 45.127C40.8886 45.2143 40.6438 45.2913 40.4568 45.1909C40.3001 45.1084 40.2292 44.9627 40.0931 44.6238C39.9281 44.2147 39.7026 43.6544 39.0481 43.3457C38.6851 43.1752 38.3242 43.092 37.9461 43.092C37.2654 43.092 36.6852 43.3601 36.0706 43.6441L35.7385 43.796C35.1576 44.0545 34.8035 44.4436 34.5182 44.7564C34.2514 45.0493 34.0589 45.2604 33.7296 45.3766C32.9417 45.6536 32.3278 45.7891 31.8534 45.7891C31.2154 45.7891 31.0319 45.5484 30.9363 45.3154C30.7039 44.7427 30.7259 44.5536 30.9239 44.3494C31.0443 44.3494 31.1728 44.3749 31.3069 44.3976C31.6657 44.4581 32.1319 44.5103 32.532 44.4065C33.1879 44.2291 33.6189 44.005 34.0754 43.7678C34.2666 43.6681 34.4694 43.5629 34.7127 43.4495C34.8743 43.3732 35.1239 43.3299 35.3638 43.2886C35.898 43.1965 37.0111 43.0061 36.9299 41.8559C36.8468 40.8274 35.9097 40.6074 35.3494 40.4754C35.1919 40.4382 35.0304 40.4025 34.8757 40.3461C34.6804 40.2767 34.4673 40.2409 34.2267 40.2368C34.3271 40.0883 34.3965 39.9041 34.4158 39.6731C34.4742 38.8316 34.0459 38.1503 33.1404 37.6477C32.8998 37.515 32.6427 37.4476 32.3766 37.4476C32.0246 37.4476 31.7269 37.5611 31.4643 37.6614C31.2278 37.7508 31.0216 37.8251 30.8531 37.801C30.2894 37.7185 29.9532 37.4689 29.4891 37.1238C29.232 36.9327 28.9398 36.7154 28.5782 36.5078C28.2805 36.3387 28.0481 36.162 27.8013 35.9757C27.3538 35.6367 26.8911 35.2854 26.1376 35.0737C25.1785 34.8042 24.3618 34.8702 23.3594 35.0187L23.1126 35.0551C22.9489 35.0785 22.7977 35.0922 22.6547 35.1053C22.1343 35.1541 21.5966 35.2043 20.982 35.6237C20.3172 36.0857 20.1591 36.7134 20.0312 37.218C19.9501 37.5391 19.8793 37.8161 19.6867 38.0519C19.4922 38.2953 19.288 38.4342 19.0302 38.6102C18.8274 38.7484 18.606 38.9024 18.3791 39.1148C18.3778 39.0742 18.375 39.0378 18.375 39C18.375 28.9542 25.5594 20.5894 35.0696 18.7538C35.1459 18.8721 35.2243 18.9869 35.2992 19.0907C35.5384 19.4207 35.5976 19.5259 35.5817 19.7198C35.5646 19.9473 35.4779 20.0566 35.2071 20.3688L35.0723 20.5269C34.8936 20.7414 34.71 20.8466 34.4549 20.9916C34.2294 21.1209 33.973 21.2666 33.6911 21.51C33.5791 21.6076 33.4643 21.6819 33.3556 21.7534C33.0277 21.9706 32.5781 22.269 32.4131 22.9228C32.2453 23.5986 32.6324 24.0654 32.8641 24.3446C32.9383 24.4353 33.0641 24.5866 33.0614 24.6271C33.0339 24.9777 32.9603 25.1448 32.708 25.4109C32.6592 25.4645 32.6166 25.4927 32.5183 25.5566C32.4406 25.6061 32.3588 25.6597 32.268 25.7292L32.1848 25.8048C32.1436 25.8481 31.7819 26.2469 31.5674 26.8711C31.4045 27.3627 31.3976 27.6191 31.5372 27.9698L31.5674 28.0509C31.5922 28.1341 31.6156 28.4269 31.6169 28.616L31.5592 29.4534L32.1188 29.5929C32.4866 29.6844 32.6729 29.7607 33.049 29.9463C33.2903 30.0625 33.4491 30.1732 33.6499 30.3127L33.852 30.4496C34.1215 30.6104 34.3951 30.5822 34.6859 30.5499C34.831 30.5644 34.9589 30.574 35.0806 30.5843C35.3452 30.6049 35.579 30.6242 35.9117 30.6723L36.1276 30.6991C36.2954 30.7198 36.4288 30.7342 36.6144 30.7837C36.7203 30.8132 36.8103 30.882 36.9595 30.9989C37.2139 31.1996 37.5624 31.4739 38.1317 31.4739C38.6294 31.4705 38.9512 31.2519 39.1863 31.0917C39.3224 30.9996 39.4042 30.9459 39.506 30.9177C39.7453 30.8497 40.0189 30.8524 40.2973 30.8669C40.6988 30.8896 41.1051 30.8813 41.4819 30.7878C41.6572 30.7438 41.7968 30.6833 41.9301 30.6214C42.047 30.5678 42.0903 30.5493 42.1047 30.5465L42.1543 30.5479L42.19 30.5438C42.2354 30.5472 42.3062 30.5774 42.3956 30.6153C42.5723 30.6909 42.8136 30.7954 43.1779 30.8077C43.9198 30.8077 45.0693 29.8521 45.083 29.8404C45.2109 29.7277 45.3174 29.6782 45.4948 29.595C45.6199 29.5366 45.7512 29.474 45.9321 29.3688C46.1218 29.243 46.2731 29.1206 46.4161 29.0031C46.6182 28.8374 46.7509 28.7274 46.9798 28.6476C47.459 28.4771 47.6873 28.4139 47.9843 28.5142C48.1541 28.5734 48.2228 28.6208 48.4421 28.7989C48.5494 28.8855 48.6064 28.968 48.7027 29.1048C48.7962 29.2389 48.8952 29.3778 49.0293 29.5208C49.0891 29.5874 49.1386 29.65 49.1853 29.7098C49.3352 29.8989 49.5215 30.1354 49.8708 30.3279C50.3059 30.5644 50.8387 30.53 51.2306 30.4509C51.4066 30.4152 51.5434 30.3822 51.6899 30.4049L51.9333 30.4379C52.101 30.4592 52.222 30.475 52.3396 30.5135C52.3987 30.5314 52.4606 30.5561 52.5348 30.596C52.8359 30.7562 52.9487 30.8992 53.2134 31.2952C53.4485 31.6541 53.5001 31.9181 53.5942 32.3979L53.6431 32.6434C53.7262 33.0662 53.7352 33.3536 53.7469 33.7509L53.7606 34.1297C53.7682 34.3119 53.7826 34.4714 53.7977 34.622C53.8273 34.9231 53.8466 35.1225 53.7785 35.4044C53.7379 35.5763 53.6561 35.6897 53.5021 35.8918C53.3275 36.1208 53.1102 36.4061 52.9934 36.833L52.959 36.9499C52.8346 37.3761 52.7163 37.779 52.849 38.3751C52.8799 38.5077 52.8737 38.8976 52.8689 39.1822C52.8559 39.9604 52.8483 40.4747 53.1742 40.8061C53.3234 40.958 53.5214 41.0412 53.7318 41.0412L53.9449 41.0268L54.0851 40.9594C54.2811 40.8659 54.4509 40.7318 54.6035 40.5833C54.609 40.5957 54.6138 40.6074 54.6186 40.6197C54.8077 41.0419 55.2119 41.2846 55.7289 41.2846C56.2954 41.2846 57.4422 40.8831 57.5206 40.1399C57.5391 39.9439 57.5316 39.7666 57.5219 39.5995C57.5075 39.3582 57.5123 39.3114 57.5584 39.2379C57.5852 39.2173 57.7007 39.1836 57.777 39.1623C58.0176 39.0928 58.3456 38.9993 58.6494 38.7057C58.9155 38.4417 59.0344 38.1764 59.13 37.9639C59.2015 37.8044 59.2428 37.7171 59.3266 37.6305C59.3761 37.5782 59.4435 37.5439 59.5659 37.4854C59.6003 37.9859 59.625 38.4899 59.625 39C59.625 50.3905 50.3905 59.625 39 59.625Z" stroke="#03624C" strokeWidth="2" mask="url(#path-1-outside-1_192_1463)"/>
<path d="M47.6827 36.3614C46.9265 36.5793 46.6542 37.1568 46.4548 37.5789C46.3483 37.8058 46.2555 38.001 46.1028 38.142C45.8333 38.3936 45.5728 38.5325 45.2703 38.6934C44.9348 38.8721 44.5546 39.0742 44.1613 39.4414C44.0211 39.5713 43.8602 39.6834 43.7069 39.7927C43.2002 40.1522 42.4336 40.696 42.6585 41.7204C42.8056 42.3632 43.2999 42.7469 43.9798 42.7469C44.4301 42.7469 44.919 42.5894 45.3926 42.4368C45.6264 42.3619 45.8581 42.2855 46.0691 42.2388C47.2736 41.9755 48.098 41.6599 49 40.7538C49.099 40.6555 49.2021 40.5572 49.3066 40.4568C50.0862 39.7143 51.2632 38.5916 50.388 37.2922C49.7995 36.4088 48.7566 36.0527 47.6827 36.3614ZM48.3571 39.4613C48.2458 39.5679 48.1351 39.6737 48.0271 39.781C47.3513 40.4602 46.7855 40.674 45.7742 40.8954C45.5233 40.9504 45.2469 41.0384 44.9698 41.1278C44.6247 41.2385 44.2349 41.365 43.9977 41.3712C44.0121 41.2873 44.1215 41.1849 44.503 40.914C44.6893 40.7813 44.9018 40.6307 45.0977 40.4479C45.3603 40.2038 45.6175 40.0663 45.9158 39.9075C46.2548 39.7267 46.6398 39.5225 47.0378 39.1499C47.3843 38.8309 47.5583 38.4624 47.6978 38.166C47.8738 37.7941 47.9281 37.7219 48.0636 37.6827C48.1963 37.6442 48.3255 37.625 48.4479 37.625C48.7855 37.625 49.0536 37.7694 49.2454 38.0574C49.4228 38.3207 49.2234 38.6356 48.3571 39.4613Z" fill="#00DF82"/>
<path d="M39.2898 53.4932C39.131 53.4932 38.9702 53.5179 38.8038 53.5688C37.8014 53.8919 37.8488 54.8984 37.8736 55.4395C37.8832 55.6382 37.8915 55.8259 37.8729 55.9895C37.8571 56.1387 37.8158 56.2817 37.7794 56.4192C37.657 56.8812 37.4728 57.5783 38.0798 58.1764C38.3658 58.4514 38.7268 58.5972 39.1248 58.5972C39.7154 58.5972 40.3802 58.2555 40.9075 57.68C41.7147 56.7815 41.7243 55.4683 40.9371 54.4948C40.57 54.028 40.0523 53.4932 39.2898 53.4932ZM39.888 56.756C39.6088 57.062 39.2926 57.2222 39.1248 57.2222C39.0836 57.2222 39.063 57.2139 39.03 57.1857C39.0155 57.1225 39.0726 56.9114 39.109 56.7712C39.1578 56.5849 39.2142 56.3731 39.239 56.1428C39.2706 55.874 39.2575 55.6093 39.2472 55.3749C39.2397 55.2147 39.2293 54.9823 39.2493 54.8723C39.3648 54.8517 39.5002 54.8922 39.8612 55.3515C40.2317 55.81 40.2413 56.3635 39.888 56.756Z" fill="#00DF82"/>
</svg>
