<svg width="78" height="78" viewBox="0 0 78 78" fill="none" xmlns="http://www.w3.org/2000/svg">
<rect width="78" height="78" fill="#F1F7F7"/>
<path d="M35 27H43C43 29.2091 41.2091 31 39 31C36.7909 31 35 29.2091 35 27Z" fill="#00DF82"/>
<path d="M39 37C33.4772 37 29 32.5228 29 27C29 21.4772 33.4772 17 39 17C44.5229 17 49 21.4772 49 27C49 32.5228 44.5229 37 39 37ZM39 33C42.3137 33 45 30.3137 45 27C45 23.6863 42.3137 21 39 21C35.6863 21 33 23.6863 33 27C33 30.3137 35.6863 33 39 33ZM24.9995 57.0447C24.9748 58.149 24.0596 59.0242 22.9554 58.9995C21.8511 58.9748 20.9758 58.0596 21.0005 56.9553C21.2915 43.9254 27.4474 39 38.9999 39C51.0957 39 57.282 43.9638 56.9899 57.0447C56.9652 58.149 56.05 59.0242 54.9457 58.9995C53.8414 58.9748 52.9662 58.0596 52.9909 56.9553C53.2348 46.0362 48.7608 43 38.9999 43C29.7553 43 25.2445 46.0746 24.9995 57.0447Z" fill="#03624C"/>
</svg>
