<svg width="78" height="78" viewBox="0 0 78 78" fill="none" xmlns="http://www.w3.org/2000/svg">
<rect width="78" height="78" fill="#F1F7F7"/>
<g clip-path="url(#clip0_192_1427)">
<path d="M45.8122 48.2159C47.1987 46.8617 48.1502 45.1249 48.5451 43.2274C48.94 41.3299 48.7604 39.3578 48.0292 37.5628C47.2981 35.7679 46.0486 34.2316 44.4402 33.15C42.8319 32.0685 40.9377 31.4909 38.9996 31.4909C37.0614 31.4909 35.1673 32.0685 33.5589 33.15C31.9506 34.2316 30.7011 35.7679 29.9699 37.5628C29.2388 39.3578 29.0592 41.3299 29.4541 43.2274C29.849 45.1249 30.8004 46.8617 32.187 48.2159C29.5765 49.636 27.4768 51.8387 26.1834 54.5142C25.9226 55.0505 25.8854 55.6685 26.08 56.2323C26.2746 56.7961 26.685 57.2595 27.2212 57.5208C27.7573 57.7821 28.3753 57.8198 28.9392 57.6256C29.5032 57.4315 29.9669 57.0214 30.2287 56.4855C31.0293 54.8407 32.2762 53.4543 33.8271 52.4843C35.378 51.5144 37.1704 51 38.9996 51C40.8288 51 42.6212 51.5144 44.1721 52.4843C45.723 53.4543 46.9699 54.8407 47.7705 56.4855C48.0322 57.0214 48.496 57.4315 49.06 57.6256C49.6239 57.8197 50.2418 57.782 50.7779 57.5207C51.3141 57.2594 51.7245 56.796 51.9191 56.2322C52.1137 55.6685 52.0765 55.0505 51.8157 54.5142C50.5223 51.8387 48.4227 49.636 45.8122 48.2159ZM33.7496 41.25C33.7496 40.2117 34.0575 39.1966 34.6344 38.3333C35.2112 37.4699 36.0312 36.797 36.9905 36.3996C37.9498 36.0023 39.0054 35.8983 40.0238 36.1009C41.0422 36.3035 41.9777 36.8035 42.7119 37.5377C43.4461 38.2719 43.9461 39.2074 44.1487 40.2258C44.3513 41.2442 44.2473 42.2998 43.85 43.2591C43.4526 44.2184 42.7797 45.0383 41.9163 45.6152C41.053 46.1921 40.0379 46.5 38.9996 46.5C37.6077 46.4984 36.2732 45.9448 35.289 44.9606C34.3048 43.9764 33.7511 42.6419 33.7496 41.25ZM62.1013 43.0481C61.8651 43.2257 61.5962 43.3549 61.31 43.4285C61.0239 43.5022 60.726 43.5187 60.4334 43.4771C60.1409 43.4356 59.8594 43.3368 59.605 43.1864C59.3506 43.0361 59.1284 42.8371 58.9509 42.6008C58.245 41.6531 57.3581 40.8548 56.3415 40.2521C55.325 39.6495 54.199 39.2545 53.0288 39.0899C52.5826 39.0264 52.1658 38.8303 51.8324 38.527C51.499 38.2238 51.2644 37.8274 51.159 37.3892C51.0393 37.0927 50.9845 36.774 50.9984 36.4546C51.0122 36.1352 51.0944 35.8224 51.2394 35.5374C51.3843 35.2525 51.5887 35.0019 51.8386 34.8025C52.0886 34.6032 52.3784 34.4598 52.6885 34.3819C53.2991 34.2239 53.86 33.9144 54.3192 33.4821C54.7785 33.0499 55.1214 32.5088 55.3161 31.9089C55.5108 31.309 55.5512 30.6698 55.4333 30.0502C55.3155 29.4306 55.0434 28.8507 54.6421 28.3642C54.2408 27.8776 53.7232 27.5001 53.1374 27.2666C52.5515 27.0331 51.9162 26.9511 51.2903 27.0281C50.6643 27.1052 50.0679 27.3388 49.5561 27.7075C49.0444 28.0761 48.6339 28.5679 48.3626 29.1372C48.2353 29.4039 48.0567 29.6428 47.837 29.8404C47.6173 30.038 47.3609 30.1905 47.0823 30.289C46.8038 30.3875 46.5085 30.4302 46.2134 30.4146C45.9184 30.399 45.6293 30.3254 45.3626 30.1981C45.096 30.0708 44.857 29.8922 44.6594 29.6725C44.4618 29.4528 44.3094 29.1964 44.2109 28.9178C44.1124 28.6392 44.0697 28.344 44.0853 28.0489C44.1009 27.7539 44.1744 27.4648 44.3018 27.1981C44.8065 26.1409 45.5305 25.2032 46.4257 24.4475C47.321 23.6918 48.3669 23.1354 49.4939 22.8153C50.6209 22.4952 51.8031 22.4188 52.9619 22.5911C54.1207 22.7634 55.2295 23.1805 56.2146 23.8147C57.1997 24.4488 58.0385 25.2855 58.6751 26.269C59.3117 27.2525 59.7316 28.3603 59.9068 29.5187C60.082 30.677 60.0085 31.8595 59.6912 32.9872C59.374 34.115 58.8202 35.1623 58.0667 36.0594C59.8257 36.9924 61.3563 38.3032 62.5488 39.8978C62.9072 40.3749 63.0614 40.9748 62.9775 41.5656C62.8936 42.1564 62.5784 42.6897 62.1013 43.0481ZM24.9704 39.0899C23.8001 39.2545 22.6741 39.6495 21.6575 40.2522C20.6409 40.8549 19.754 41.6532 19.048 42.601C18.6897 43.0781 18.1564 43.3933 17.5656 43.4773C16.9748 43.5612 16.3748 43.407 15.8977 43.0487C15.4206 42.6903 15.1054 42.157 15.0214 41.5662C14.9375 40.9754 15.0916 40.3755 15.45 39.8983C16.6425 38.3035 18.1733 36.9925 19.9324 36.0593C19.1787 35.1622 18.6247 34.1149 18.3073 32.9871C17.9898 31.8592 17.9162 30.6767 18.0913 29.5182C18.2665 28.3596 18.6863 27.2517 19.3229 26.2681C19.9596 25.2844 20.7984 24.4476 21.7835 23.8134C22.7687 23.1791 23.8777 22.762 25.0366 22.5897C26.1956 22.4173 27.3779 22.4938 28.505 22.814C29.6321 23.1342 30.6781 23.6907 31.5733 24.4466C32.4686 25.2024 33.1926 26.1403 33.6972 27.1978C33.9538 27.7362 33.9861 28.3544 33.787 28.9166C33.588 29.4788 33.1739 29.939 32.6357 30.196C32.0975 30.4531 31.4793 30.4859 30.917 30.2874C30.3546 30.0889 29.894 29.6752 29.6365 29.1372C29.3652 28.5678 28.9547 28.0761 28.4429 27.7074C27.9312 27.3387 27.3347 27.1051 26.7088 27.028C26.0828 26.9509 25.4475 27.0329 24.8616 27.2665C24.2757 27.5 23.7582 27.8775 23.3569 28.3641C22.9555 28.8506 22.6834 29.4305 22.5656 30.0501C22.4478 30.6698 22.4881 31.3091 22.6829 31.909C22.8777 32.5088 23.2205 33.0499 23.6798 33.4822C24.1391 33.9144 24.7 34.2239 25.3106 34.3819C25.6207 34.4598 25.9105 34.6032 26.1605 34.8025C26.4105 35.0019 26.6149 35.2525 26.7598 35.5374C26.9048 35.8224 26.9869 36.1352 27.0008 36.4546C27.0147 36.774 26.9599 37.0927 26.8402 37.3892C26.7348 37.8274 26.5002 38.2238 26.1668 38.527C25.8334 38.8303 25.4166 39.0264 24.9704 39.0899Z" fill="#03624C"/>
<path fillRule="evenodd" clipRule="evenodd" d="M45.8554 48.225C47.2419 46.8708 48.1934 45.134 48.5882 43.2365C48.9831 41.339 48.8035 39.3669 48.0724 37.5719C47.3413 35.777 46.0917 34.2407 44.4834 33.1592C42.8751 32.0776 40.9809 31.5 39.0428 31.5C37.1046 31.5 35.2104 32.0776 33.6021 33.1592C31.9938 34.2407 30.7443 35.777 30.0131 37.5719C29.282 39.3669 29.1024 41.339 29.4973 43.2365C29.8922 45.134 30.8436 46.8708 32.2301 48.225C29.6196 49.6451 27.52 51.8478 26.2266 54.5233C25.9657 55.0596 25.9285 55.6776 26.1231 56.2414C26.3177 56.8052 26.7282 57.2686 27.2644 57.5299C27.8005 57.7912 28.4184 57.8289 28.9824 57.6348C29.5463 57.4406 30.0101 57.0305 30.2718 56.4946C31.0724 54.8499 32.3193 53.4634 33.8702 52.4934C35.4212 51.5235 37.2135 51.0091 39.0428 51.0091C40.872 51.0091 42.6644 51.5235 44.2153 52.4934C45.7662 53.4634 47.0131 54.8499 47.8137 56.4946C48.0754 57.0305 48.5392 57.4406 49.1031 57.6347C49.6671 57.8288 50.285 57.7911 50.8211 57.5298C51.3572 57.2685 51.7677 56.8051 51.9623 56.2413C52.1569 55.6776 52.1197 55.0596 51.8589 54.5233C50.5655 51.8478 48.4659 49.6451 45.8554 48.225ZM39.083 46.5C41.9825 46.5 44.333 44.1495 44.333 41.25C44.333 38.3505 41.9825 36 39.083 36C36.1835 36 33.833 38.3505 33.833 41.25C33.833 44.1495 36.1835 46.5 39.083 46.5Z" fill="#00DF82"/>
</g>
<defs>
<clipPath id="clip0_192_1427">
<rect width="48" height="48" fill="white" transform="translate(15 15)"/>
</clipPath>
</defs>
</svg>
