<svg width="78" height="78" viewBox="0 0 78 78" fill="none" xmlns="http://www.w3.org/2000/svg">
<rect width="78" height="78" fill="#F1F7F7"/>
<path d="M22.6353 25.9661C24.8109 25.9661 26.5734 24.202 26.5734 22.0279C26.5734 19.8515 24.8109 18.0889 22.6353 18.0889C20.4588 18.0889 18.6963 19.8515 18.6963 22.0279C18.6963 24.202 20.4588 25.9661 22.6353 25.9661Z" fill="#03624C"/>
<path d="M36.0156 37.9722C36.0156 37.892 36.0022 37.8154 35.992 37.738L41.8747 33.4686C42.2442 33.1998 42.3275 32.68 42.0587 32.3096C41.9027 32.0954 41.6516 31.9673 41.3865 31.9673C41.2105 31.9673 41.0427 32.0225 40.8998 32.1256L35.0054 36.404C34.7859 36.3038 34.5452 36.2442 34.2882 36.2442H31.084L30.3065 31.8172C29.8794 29.5849 28.9835 27.8318 27.0751 27.8318H18.9845C17.0762 27.8318 15 29.908 15 31.8172V45.0549C15 46.0091 15.7731 46.7829 16.7272 46.7829C17.197 46.7829 16.7272 46.7829 17.9332 46.7829L18.59 58.0727C18.59 59.088 19.4138 59.9111 20.4292 59.9111C21.1904 59.9111 23.0915 59.9111 24.1068 59.9111C25.1221 59.9111 25.9452 59.088 25.9452 58.0727L26.8081 35.7105H26.8515L27.3456 37.892C27.5091 38.9323 28.4043 39.6995 29.4572 39.6995H34.2885C35.2425 39.6995 36.0156 38.9264 36.0156 37.9722ZM21.3774 35.5182V29.2254H23.6392V35.5182L22.4377 36.9355L21.3774 35.5182Z" fill="#03624C"/>
<path d="M32.8428 19.4503V33.8315H35.1046V21.712H60.7379V43.3248H35.1046V40.6043H32.8428V45.5865H62.9997V19.4503H32.8428Z" fill="#00DF82"/>
<path d="M44.2326 51.431C44.2326 49.6684 42.8043 48.2408 41.0424 48.2408C39.2798 48.2408 37.8516 49.6684 37.8516 51.431C37.8516 53.1921 39.2798 54.6211 41.0424 54.6211C42.8042 54.6211 44.2326 53.192 44.2326 51.431Z" fill="#03624C"/>
<path d="M41.0421 56.33C38.7678 56.33 36.8359 57.8224 36.0938 59.9111H45.9905C45.2483 57.8223 43.3163 56.33 41.0421 56.33Z" fill="#03624C"/>
<path d="M57.9914 51.431C57.9914 49.6684 56.5631 48.2408 54.8012 48.2408C53.0386 48.2408 51.6104 49.6684 51.6104 51.431C51.6104 53.1921 53.0386 54.6211 54.8012 54.6211C56.5631 54.6211 57.9914 53.192 57.9914 51.431Z" fill="#03624C"/>
<path d="M54.8009 56.33C52.5267 56.33 50.5948 57.8224 49.8525 59.9111H59.7493C59.0071 57.8223 57.0752 56.33 54.8009 56.33Z" fill="#03624C"/>
</svg>
