<svg width="78" height="78" viewBox="0 0 78 78" fill="none" xmlns="http://www.w3.org/2000/svg">
<rect width="78" height="78" fill="#F1F7F7"/>
<path d="M52.3337 36.3333H25.667M47.0003 36.3333V41.6667M49.667 25.6667H28.3337V17.6667C28.3337 16.9594 28.6146 16.2811 29.1147 15.781C29.6148 15.281 30.2931 15 31.0003 15H47.0003C47.7076 15 48.3858 15.281 48.8859 15.781C49.386 16.2811 49.667 16.9594 49.667 17.6667V25.6667Z" stroke="#00DF82" strokeWidth="5.33333" strokeLinecap="round" strokeLinejoin="round"/>
<path d="M63 60.3333V28.3333C63 26.8606 61.8061 25.6667 60.3333 25.6667L17.6667 25.6667C16.1939 25.6667 15 26.8606 15 28.3333V60.3333C15 61.8061 16.1939 63 17.6667 63H60.3333C61.8061 63 63 61.8061 63 60.3333Z" stroke="#03624C" strokeWidth="5.33333" strokeLinecap="round" strokeLinejoin="round"/>
</svg>
