<svg width="109" height="109" viewBox="0 0 109 109" fill="none" xmlns="http://www.w3.org/2000/svg">
<g clip-path="url(#clip0_192_5058)">
<path d="M106.829 4.16675H2.17131C0.972315 4.16675 0 5.13885 0 6.33806V65.4069V79.3776C0 80.5768 0.972315 81.5489 2.17131 81.5489H52.3287V87.2554H36.2401C35.0411 87.2554 34.0688 88.2275 34.0688 89.4267C34.0688 90.6259 35.0411 91.598 36.2401 91.598H65.6866V93.1031V102.662C65.6866 103.861 66.6589 104.833 67.8579 104.833H96.0444C97.2434 104.833 98.2157 103.861 98.2157 102.662V93.1031V81.5489H106.829C108.028 81.5489 109 80.5768 109 79.3776V65.4069V6.33806C109 5.13906 108.028 4.16675 106.829 4.16675ZM65.6866 87.2556H56.6713V81.5492H65.6866V87.2556ZM65.6866 77.2065H4.34263V67.5785H65.6866V77.2065ZM93.8731 100.491H70.0292V95.2749H93.8731V100.491ZM93.8731 65.4072V79.3778V90.9321H70.0292V79.3778V65.4072V55.5685H93.8731V65.4072ZM104.657 77.2065H98.2157V67.5785H104.657V77.2065ZM104.657 63.2356H98.2157V53.3972C98.2157 52.198 97.2434 51.2259 96.0444 51.2259H67.8579C66.6589 51.2259 65.6866 52.198 65.6866 53.3972V63.2358H4.34263V8.50938H104.657V63.2356Z" fill="#00DF82"/>
<path d="M9.52385 15.6174H68.3476C69.5468 15.6174 70.5189 14.6453 70.5189 13.4461C70.5189 12.2469 69.5466 11.2748 68.3476 11.2748H9.52385C8.32485 11.2748 7.35254 12.2469 7.35254 13.4461C7.35254 14.6453 8.32485 15.6174 9.52385 15.6174Z" fill="white"/>
<path d="M76.9262 15.6174H80.1124C81.3114 15.6174 82.2837 14.6453 82.2837 13.4461C82.2837 12.2469 81.3114 11.2748 80.1124 11.2748H76.9262C75.7272 11.2748 74.7549 12.2469 74.7549 13.4461C74.7549 14.6453 75.7272 15.6174 76.9262 15.6174Z" fill="white"/>
<path d="M75.4565 87.6766C76.6555 87.6766 77.6278 86.7045 77.6278 85.5053V71.5346C77.6278 70.3354 76.6555 69.3633 75.4565 69.3633C74.2575 69.3633 73.2852 70.3354 73.2852 71.5346V85.5053C73.2852 86.7045 74.2575 87.6766 75.4565 87.6766Z" fill="white"/>
<path d="M75.4565 66.1079C76.6555 66.1079 77.6278 65.1358 77.6278 63.9365V60.7504C77.6278 59.5511 76.6555 58.579 75.4565 58.579C74.2575 58.579 73.2852 59.5511 73.2852 60.7504V63.9365C73.2852 65.1358 74.2575 66.1079 75.4565 66.1079Z" fill="white"/>
</g>
<defs>
<clipPath id="clip0_192_5058">
<rect width="109" height="109" fill="white"/>
</clipPath>
</defs>
</svg>
