<svg width="28" height="31" viewBox="0 0 28 31" fill="none" xmlns="http://www.w3.org/2000/svg">
<path d="M13.7323 18.4728C12.6624 18.4729 11.6164 18.18 10.7267 17.6312C9.83702 17.0824 9.14358 16.3023 8.7341 15.3895C8.32461 14.4767 8.21747 13.4723 8.42623 12.5033C8.63499 11.5343 9.15027 10.6442 9.90689 9.94562C10.6635 9.24705 11.6275 8.77137 12.6769 8.57876C13.7263 8.38614 14.8141 8.48523 15.8025 8.8635C16.7909 9.24176 17.6356 9.88222 18.2299 10.7038C18.8241 11.5255 19.1411 12.4914 19.1407 13.4794C19.1388 14.8033 18.5684 16.0725 17.5545 17.0086C16.5406 17.9446 15.166 18.4712 13.7323 18.4728ZM13.7323 10.7883C13.1563 10.7881 12.5931 10.9457 12.1141 11.2411C11.635 11.5364 11.2616 11.9564 11.0409 12.4477C10.8203 12.9391 10.7624 13.4798 10.8746 14.0015C10.9867 14.5233 11.2639 15.0026 11.6711 15.3788C12.0782 15.7551 12.597 16.0115 13.1619 16.1155C13.7269 16.2195 14.3125 16.1665 14.8448 15.9632C15.3771 15.7599 15.8321 15.4154 16.1524 14.9733C16.4727 14.5312 16.6438 14.0113 16.6442 13.4794C16.6434 12.7663 16.3364 12.0825 15.7906 11.5781C15.2448 11.0736 14.5046 10.7896 13.7323 10.7883Z" fill="#00DF82"/>
<path d="M13.7307 30.7681C10.7449 30.7681 0.000399485 22.2356 0.000399485 13.5748C-0.0134221 11.9016 0.331538 10.2424 1.0154 8.69288C1.69925 7.14334 2.70848 5.73411 3.98491 4.54642C5.26133 3.35874 6.77971 2.41609 8.45251 1.77281C10.1253 1.12953 11.9195 0.79834 13.7315 0.79834C15.5436 0.79834 17.3377 1.12953 19.0105 1.77281C20.6833 2.41609 22.2017 3.35874 23.4781 4.54642C24.7546 5.73411 25.7638 7.14334 26.4476 8.69288C27.1315 10.2424 27.4765 11.9016 27.4626 13.5748C27.4626 22.2356 16.7174 30.7681 13.7307 30.7681ZM13.7307 3.10395C10.7384 3.12003 7.87515 4.23148 5.76915 6.19447C3.66315 8.15746 2.48637 10.8117 2.49697 13.5748C2.49697 20.9171 11.8567 28.0748 13.7307 28.4568C15.6056 28.0748 24.9661 20.9179 24.9661 13.5748C24.9764 10.8115 23.7994 8.15716 21.6931 6.19418C19.5868 4.23119 16.7232 3.11985 13.7307 3.10395Z" fill="#00DF82"/>
</svg>
