<svg width="17" height="21" viewBox="0 0 17 21" fill="none" xmlns="http://www.w3.org/2000/svg">
<path fillRule="evenodd" clipRule="evenodd" d="M8.49993 0.5H8.5333C13.2197 0.518416 17.0183 4.34197 16.9999 9.02232V9.11528C16.9366 12.46 14.9258 15.2356 13.2504 16.9746C12.7736 17.4718 12.2661 17.9489 11.7427 18.3944C11.4292 18.6619 10.9586 18.6251 10.6908 18.312C10.423 17.998 10.4607 17.528 10.7742 17.2605C11.2589 16.8475 11.7304 16.4037 12.1739 15.9416C13.6649 14.3946 15.4527 11.9487 15.5071 9.08809C15.522 5.15842 12.3916 2.00574 8.52715 1.98996H8.49993C4.64862 1.98996 1.50768 5.11194 1.49276 8.96093C1.55861 10.8622 2.20138 12.6696 3.35256 14.1859C4.69604 15.9749 6.73409 17.8691 8.67116 19.1302C9.01713 19.3547 9.1146 19.816 8.88893 20.1615C8.74668 20.3807 8.50696 20.5 8.26285 20.5C8.12323 20.5 7.98274 20.4614 7.85629 20.379C5.78224 19.0293 3.5993 17 2.16011 15.0839C0.824529 13.3238 0.0772721 11.2235 0 9.01267C0.0184399 4.28585 3.82848 0.5 8.49993 0.5ZM6.75516 9.11414C6.75516 10.0727 7.53667 10.854 8.4973 10.854C9.45793 10.854 10.2394 10.0727 10.2394 9.11414C10.2394 8.15474 9.45793 7.37337 8.4973 7.37337C8.08547 7.37337 7.75092 7.04012 7.75092 6.62883C7.75092 6.21665 8.08547 5.88341 8.4973 5.88341C10.2807 5.88341 11.7322 7.33215 11.7322 9.11414C11.7322 10.8952 10.2807 12.344 8.4973 12.344C6.71389 12.344 5.26241 10.8952 5.26241 9.11414C5.26241 8.70196 5.59696 8.36872 6.00879 8.36872C6.42061 8.36872 6.75516 8.70196 6.75516 9.11414Z" fill="#042222"/>
</svg>
