<svg width="20" height="19" viewBox="0 0 20 19" fill="none" xmlns="http://www.w3.org/2000/svg">
<path fillRule="evenodd" clipRule="evenodd" d="M20 7.80693C20 8.20064 19.6832 8.5198 19.2923 8.5198L19.2835 8.50198C19.0958 8.50198 18.9158 8.42687 18.7831 8.29319C18.6504 8.1595 18.5759 7.97817 18.5759 7.78911V6.34554C18.5519 3.91955 16.6055 1.95879 14.1973 1.93465H5.80274C3.39451 1.95879 1.44811 3.91955 1.42415 6.34554V12.6545C1.44811 15.0805 3.39451 17.0412 5.80274 17.0653H14.1973C16.6055 17.0412 18.5519 15.0805 18.5759 12.6545C18.6163 12.2891 18.923 12.0127 19.2879 12.0127C19.6529 12.0127 19.9595 12.2891 20 12.6545C19.9903 15.8788 17.398 18.4902 14.1973 18.5H5.80274C2.6 18.4951 0.00487111 15.8808 0 12.6545V6.34554C0 3.11714 2.59798 0.5 5.80274 0.5H14.1973C17.398 0.509786 19.9903 3.1212 20 6.34554V7.80693ZM10.7386 9.35743L14.8518 6.04257H14.8607C15.167 5.79731 15.6119 5.84491 15.8602 6.1495C15.9785 6.298 16.0329 6.488 16.0113 6.67715C15.9897 6.86629 15.8939 7.03888 15.7452 7.15644L11.632 10.4802C10.5862 11.328 9.0954 11.328 8.04954 10.4802L3.92747 7.15644C3.6251 6.90629 3.57785 6.45805 3.82132 6.1495C3.93771 6.00163 4.10817 5.90703 4.29443 5.88693C4.4807 5.86682 4.66718 5.9229 4.81203 6.04257L8.96948 9.35743C9.48881 9.7679 10.2193 9.7679 10.7386 9.35743Z" fill="#042222"/>
</svg>
