<svg width="71" height="61" viewBox="0 0 71 61" fill="none" xmlns="http://www.w3.org/2000/svg">
<path d="M52.1612 40.2911L48.3101 34.8355C47.6968 33.9665 47.3901 33.5322 47.013 33.3857C46.6832 33.2577 46.3161 33.2651 45.9918 33.4063C45.6208 33.5679 45.332 34.0143 44.7542 34.9071L39.8785 42.4424C39.7505 42.6402 39.6865 42.7392 39.6412 42.8457C39.601 42.9403 39.5717 43.0391 39.5541 43.1404C39.5342 43.2545 39.5342 43.3724 39.5341 43.608L39.5332 46.9992H61V43.592C61 43.3622 61 43.2474 60.9811 43.1359C60.9643 43.037 60.9364 42.9403 60.8982 42.8476C60.8548 42.7431 60.7938 42.6458 60.6717 42.4511L59.3756 40.3853C58.2301 38.5598 57.6574 37.647 56.9131 37.3142C56.2624 37.0232 55.5226 37.0031 54.8572 37.2584C54.096 37.5502 53.4745 38.4306 52.2317 40.1913L52.1612 40.2911ZM52.1612 40.2911L56.9131 46.9992M61 28.2167C61 29.6986 59.7987 30.8999 58.3168 30.8999C56.8348 30.8999 55.6336 29.6986 55.6336 28.2167C55.6336 26.7348 56.8348 25.5334 58.3168 25.5334C59.7987 25.5334 61 26.7348 61 28.2167Z" stroke="#00DF82" strokeWidth="2.33" strokeLinecap="round" strokeLinejoin="round"/>
<path d="M30.3974 27.8471C28.478 25.3303 25.5743 24 22.0002 24C18.426 24 15.5223 25.3303 13.6029 27.8471C11.9509 30.0133 11.0776 32.9539 11.0776 36.351C11.0776 40.0687 12.1399 43.8939 13.992 46.8458C16.0776 50.1696 18.9216 52 22.0002 52C25.0787 52 27.9228 50.1696 30.0083 46.8458C31.8604 43.8939 32.9226 40.0688 32.9226 36.351C32.9227 32.9539 32.0494 30.0133 30.3974 27.8471ZM14.5503 44.014L16.657 44.394L17.1652 47.9489C16.1221 46.898 15.2382 45.5392 14.5503 44.014ZM21.0871 44.8636H19.24V46.6896H21.0871V50.1014C20.4392 49.999 19.8187 49.7896 19.23 49.4886L18.2781 42.8309L13.7923 42.0218C13.2174 40.1987 12.9038 38.2437 12.9038 36.3511C12.9038 33.761 13.4925 31.4208 14.5745 29.6571V32.3663H16.4006V27.576C16.979 27.1168 17.6219 26.7479 18.3269 26.469V31.7186L21.0871 33.281V44.8636ZM21.0871 31.1827L20.153 30.6539V25.9708C20.4557 25.921 20.7672 25.8843 21.0871 25.8602V31.1827ZM22.9132 25.8602C23.2331 25.8843 23.5446 25.921 23.8473 25.9708V30.6539L22.9132 31.1827V25.8602ZM26.8351 47.9488L27.3434 44.394L29.45 44.0139C28.7621 45.5392 27.8782 46.898 26.8351 47.9488ZM25.7222 42.8308L24.7703 49.4885C24.1816 49.7895 23.5611 49.999 22.9132 50.1013V46.6896H24.7603V44.8635H22.9132V33.281L25.6733 31.7185V26.469C26.3784 26.7479 27.0213 27.1168 27.5997 27.5759V32.3663H29.4257V29.6571C30.5077 31.4207 31.0965 33.761 31.0965 36.351C31.0965 38.2437 30.7828 40.1988 30.2079 42.0217L25.7222 42.8308Z" fill="#03624C"/>
<path d="M26.7765 35.1445C25.154 35.1445 23.834 36.4645 23.834 38.087C23.834 39.7096 25.154 41.0296 26.7765 41.0296C28.399 41.0296 29.719 39.7096 29.719 38.087C29.719 36.4646 28.399 35.1445 26.7765 35.1445ZM26.7765 39.2035C26.1609 39.2035 25.6601 38.7027 25.6601 38.087C25.6601 37.4715 26.1609 36.9707 26.7765 36.9707C27.392 36.9707 27.8929 37.4715 27.8929 38.087C27.8929 38.7027 27.392 39.2035 26.7765 39.2035Z" fill="#03624C"/>
<path d="M26.7761 38.8452C27.1949 38.8452 27.5344 38.5057 27.5344 38.0869C27.5344 37.6681 27.1949 37.3286 26.7761 37.3286C26.3573 37.3286 26.0178 37.6681 26.0178 38.0869C26.0178 38.5057 26.3573 38.8452 26.7761 38.8452Z" fill="#03624C"/>
<path d="M17.2239 35.1445C15.6015 35.1445 14.2814 36.4646 14.2814 38.087C14.2814 39.7096 15.6014 41.0296 17.2239 41.0296C18.8465 41.0296 20.1665 39.7096 20.1665 38.087C20.1665 36.4646 18.8465 35.1445 17.2239 35.1445ZM17.2239 39.2035C16.6084 39.2035 16.1075 38.7027 16.1075 38.087C16.1075 37.4715 16.6084 36.9707 17.2239 36.9707C17.8395 36.9707 18.3404 37.4715 18.3404 38.087C18.3404 38.7027 17.8395 39.2035 17.2239 39.2035Z" fill="#03624C"/>
<path d="M17.2236 38.8452C17.6424 38.8452 17.9819 38.5057 17.9819 38.0869C17.9819 37.6681 17.6424 37.3286 17.2236 37.3286C16.8048 37.3286 16.4653 37.6681 16.4653 38.0869C16.4653 38.5057 16.8048 38.8452 17.2236 38.8452Z" fill="#03624C"/>
<path d="M65.4033 2H5.1333C3.47645 2 2.1333 3.34314 2.1333 5V55.2667C2.1333 56.9235 3.47644 58.2667 5.1333 58.2667H65.4033C67.0602 58.2667 68.4033 56.9235 68.4033 55.2667V5C68.4033 3.34315 67.0602 2 65.4033 2Z" stroke="#03624C" strokeWidth="4" stroke-miterlimit="10"/>
<path d="M68.27 14.36C68.27 16.0169 66.9268 17.36 65.27 17.36H48.546H42.5158H5C3.34315 17.36 2 16.0169 2 14.36V5C2 3.34314 3.34315 2 5 2H65.27C66.9269 2 68.27 3.34315 68.27 5V14.36Z" stroke="#03624C" strokeWidth="4" stroke-miterlimit="10"/>
<path d="M9.01416 9.67993H12.8642" stroke="#00DF82" strokeWidth="3" stroke-miterlimit="10" strokeLinecap="round"/>
<path d="M17.897 9.67993H21.747" stroke="#00DF82" strokeWidth="3" stroke-miterlimit="10" strokeLinecap="round"/>
<path d="M26.7793 9.67993H30.5993" stroke="#00DF82" strokeWidth="3" stroke-miterlimit="10" strokeLinecap="round"/>
</svg>
